<mxfile host="Electron" agent="Mozilla/5.0 (Macintosh; Intel Mac OS X 10_15_7) AppleWebKit/537.36 (KHTML, like Gecko) draw.io/27.0.9 Chrome/134.0.6998.205 Electron/35.4.0 Safari/537.36" version="27.0.9">
  <diagram name="Page-1" id="AKdgu3u5KKeniUSkFBMX">
    <mxGraphModel dx="2296" dy="1413" grid="0" gridSize="10" guides="1" tooltips="1" connect="1" arrows="1" fold="1" page="1" pageScale="1" pageWidth="2336" pageHeight="1654" background="#232E3E" math="0" shadow="0">
      <root>
        <mxCell id="0" />
        <mxCell id="1" parent="0" />
        <mxCell id="XqRsU5LYybaEt040qR8E-5" value="" style="shape=image;verticalLabelPosition=bottom;labelBackgroundColor=default;verticalAlign=top;aspect=fixed;imageAspect=0;image=data:image/png,iVBORw0KGgoAAAANSUhEUgAAANIAAADSCAYAAAA/mZ5CAAAAAXNSR0IArs4c6QAAAIRlWElmTU0AKgAAAAgABQESAAMAAAABAAEAAAEaAAUAAAABAAAASgEbAAUAAAABAAAAUgEoAAMAAAABAAIAAIdpAAQAAAABAAAAWgAAAAAAAACQAAAAAQAAAJAAAAABAAOgAQADAAAAAQABAACgAgAEAAAAAQAAANKgAwAEAAAAAQAAANIAAAAAhk4VBwAAAAlwSFlzAAAWJQAAFiUBSVIk8AAAGRZJREFUeAHtnQucFMWdx6uqe2b2yeILoqIiPhLlFQ9QBMQYPZMYc3qXwF1MLsSYkBgFXN6G3DF4+ZiowCJELx+TmGhMYuCSy0PJXeJbAVGMoiwRgkQjssHHLgvL7s5Md9f9/sNOsocE2MfMdM/+6vP5b+/0o6r6W/Xrqq6uh1J0JEACJEACJEACJEACJEACJEACJEACJEACJEACJEACJEACJEACJEACJEACJEACJEACJEACJEACJEACJEACJEACJEACJEACJEACJEACJEACJEACJEACJEACJEACJEACJEACJEACJEACJEACJEACJEACJEACJEACJEACJEACJEACJEACJEACJEACJEACJEACJEACJEACJEACJEACJEACJEACJEACJEACJEACJEACJEACJEACJEACJEACJEACJEACJEACJEACJEACJEACJEACJEACJEACJEACJEACJEACJEACJEACJEACJEACJEACJEACkSWgIxvzbkZ80qSVzsZB7z/FdzKDlaMHaGtbAxXsdLXObB01dJOarP1ues3L+jCBkhfSsBkvDfTieoJv1QQdqDHW6MFWqSqtrIuto5S1WmnPKo2fqhXb7Y62mwKrVhvrrtm65L1v9+H8wVs/QgIlK6SzZm8eZrX9pLX2crAYAqvUsQpt/Qykk9mFG39NB/atQKkKZfR7lFUxY+KnK8dRNt2msK8J+yAs9RMnrhf//uazG46QKU/rgwRKTkgjZm8c4FmzyGrzIa3VScYtd4NM68uB1j+Dgp62yr5mfdvioypX5piMpx1j/CCWTXutqo3vjfC1HaaN8wmnrOaMoG23p7TeqY35Wczo21/4xlmv9sF8wls+DIGSEtLw2S9ebbWeqqwZq92YCrz0r1BV+67j+y+phGp6qWx4s0qigncINzRZHzftfqXKqIG+dt6rVfBlt6zfpX77HhROep22wZ3xvemVz901OnMIb3iojxEoCSFNWmmdPzyzeQVKmytMvOIEP936iNLqTj/d/mz97aP/1JM0HTbnpdNMYM5R2r8G9b0PG6XewXtVXabK3F6fHNoCv4WhvF/R9WECkRfSB5LWbW7ZvNwG/peMxluPMjcFrvrpxluG1vdmuqLKeKoT6HkmXv7FINOWgqjq0oG+rb5uaCN0BI7ZxoreDJJ+RYhApIU0NGnj5fs2LVaBnYb62jZt9FK3veyH61ecsScfaTCydsuJjk5dZoy+GY0YNUabpV4qseT5FWe8hfBYMuUDekT8jKyQxs99udoL0jdZq6bhJnb5jnPthtH1D6rJk/P+Hejc2hevso66DWXQcWjdS+r2fd9cv2JsXsQbkXzU56OJKn80nW+9fzbWTnM0Pqsqs3DDrUN/WQgRCa1n6kb8CC19S41WnmPtPJMon7S/ehdNlox1zwlET0hJaybOfOEcN/DnoGrlQEy3Zfa239NzFF3zwYt733Gsutsxbj9jVe34OS9O6JoPPLuUCEROSB95Z1vMOmaO6ybORFP0o0fvzSSL0RT93C2jm7WNLdeB91CirGaoE6h/+UDyj2WllDl4L0dOIGJCsnpfbN/ZTmDRIy7VapSf/NVdo1uP/HZ798ynlp611QmCe4L25l1G6X90WvZc2bsh0LeoEIiUkMbP3VIV02q6a1wHEX/4iSV/90TRQfdrut+o4P5EWdXxeE/66GdZKhU9SYoRgUgJqSrTfjKe/FO09Xb7gXdzMYAdGOZjyYu8uNJP2PY9DXhnOqeheS/flQ6E1Ad+R0ZIl87eWOkYfUnMjWtX2frHlo56OizpgzaPjWiCX+9oZ6gx6oKwxIvxKByByAjJ1alqo+wl2kt5jtK/LRyiw4f069uGv+Iq9VQ8Lh3J/ZHSZenwV/GMUiIQGSHFM7EyNDMPQ4RbHeuvCl8i+H8M2vfsgoJObX32d+PCFz/GKJ8EIiMkx3X7lVXUDEZGbYmft21LPqF0x29X6ZdhzxurB6J9/pTu+MFroksgEkKahKENGA5+ts20KfQk2LSqAN2Aupqk5Y7arbV9Bx+I++Ob0oCuXs/zo00gEkJSzc2Oa20/fPzEO4gKZZ+2fRXBblcHb5UlKhIYxj4k2tmCse8qgUgIqdKWJ9C0PEgHvjXW/1NXb7IQ549So9qNb/CRGJ3/UCwVIkyGER4CaGyKhjPKw/dOowzal8PqJGrSXBcccgxuWGPPePWEQHhzZae7SqfwhQaDjSSTogk8lNl0YVJZlJrZdm9HY7YIuj5FIBJCqhoIKSn1huvEtGP10DCm0OdrNx+F97fj/HSLMoH/ZhjjyDjlj0AkhNRUvz2FiRx3xB00MCsbyqZlx7YlHBWU4/Uo7WpVtI60+csq9PlQBCIhpFWrJvvGuK9mW+2sPW4uRsce6qaKcczq4Ey8cI6A/QldmDYXIw4Ms3gEIiEkweNkMnuUl96MCFc0e63nFg/ZwUN2tHsaSs2R6Am+y1XBtoOfxb2lSiAyQopVVO5DRl2HeVDRedViaHe4HAQ0uDxRjQ/G+qU7lp63NVyxY2zyTSAyQnpz2/t2o1fDTyuQWfEeclm+wXTF/xmznh8DgV/ste9pwwQSv+/KtTy3NAhERkirVmm/Iu5s9FMtr6OZ+T0zZj4nc3qHwqE0moAPsefjK9ca9MB4IBSRYiQKSiAyQhIqQeA04zvS3XE3FnOUP6d26evlBaV1kMBqa587HZ+2LsSoXe1qu66ubsz2g5zGXSVOIFJCWrx45D5867wfc3o3YEjF+NgbDVcXO31cE/yTq80VOsisUcr/abHjw/CLQyBSQhJE1dV7t+Fr0mLXcR1Mhz9n/ow1Y4qDTql5s9Z/yNjgCzCFuPx46dLzNhYrLgy3uAQiJ6Qk5kgot+nva997MhEvH2xcd+GNN64/ptAYkzM2nGwCPbeyrOZ0VDd/hHFIvyp0HBheeAhETkiCLlk3rjHmBwv9TNsrMRP7qJNyZt14XeHElKytPxoT9c+GgC5MtTVvxFoUd93Sw1UvwpMlGJPuEIikkORGb1o+9lGUAl/FIkg7ymKJGxMJVbtg1pq8dx9aMPPxkwLV8lU0MFwr/f+08ud/ve7cx7sDn9eUDoHI91JeNHP9FzH4Z348Vj44nW79Xsw1yxfcdu4L+Uiim2Y+e05gg/mO404OfO91tCNet7DufFbp8gE7Yn5GXkjC+6aZz3wag5X+rbKs/5lt7c1PaGNv1anUM19ZMVGWW+mxu3naE8f5bhyLjZnFMSc+3PNS2zFd8vULlp3/6x57Tg9KgkBJCElS4j9mrb8ScyUswLT6o2WposDPfA/Vr2+rjLs1fdy5TcnDLHl5YGpOnbohdma1qvEdfzBGuE9x3MT1nteOxdHNRqyDfu1X68Y8c+A1/N13CZSMkCQJb5n76CCVKb8ZI/8ujbmJgb6fbsQNPoB1ZO9N+MGmVk976eOctuN3qsxDTduDVasmYYU/pRYlF+njd17ueG55ormmJWFaHfTnS48KjHMpFjGbaqBOP/B3Y9ze91JOxTeSi0dyvFHf1cxB77ykhJS7wyUz117uB+YabdRYtKi9B9+clOdnXsfq5I+jCvgsVqp8DbY3MJlWV8loexkkro+11hthjTPUBnZ8IpY4KZVp87XSLfgI/KQNgiVzlp3/WC4MbkmgM4GSFFLuBpfNeHqEr/UUq4IrMPh7MEoWB4PW9x/GjtyIcCxjiX0ob7C1+LgaYJIV/PdnpZ17ocBfzlo+bm3Oz55uEUYCfnREoqe+9cnrJbFkVcYM0k/+D4UrSSEhs+pFix5zzq5/y+4YNCiurT4L83hdidG1V2FhsNN838NbFAZlZBdR7pQOIq4Au43argJ1nxvTa4O2+KaqY5sb0zur/YYTRvldfdfK+Y44yaeGQbDPwEI5XD4X1xBvJb9iIWwlAyd/DiGFZqLQkhKSCEMEcscNa95vjZmIx9VEZOAx2HcioGOkg7iObIKnmfyPC+BwZXZ3Vl4dBVX2gNao9aGEehmrA67xdbC6zfF/O+/WCXs7fDmiDQISEaERRD0IO/aILuJJhyPwME6Yi8T63eFOLMTxkhHSndOfHoVRdR+BJKZADoMBD6MtUDkzjvICbx9u9HeYcW6tVf4O6G2n1f6WmKfbPbdDSto3gXX6432pvzHBYG2d4ahBjEDhNhLX1sByunsbFYpvGm1/dlRNzZbJyaFphHVIByEdjRPqYFIaScLfCSsZ9riXQjmp0vWDfRb2fthXIKSvY1t0F/nEvGvm0x9HFv8U3mouwc1UuaiPoWEBwtGPoNHgFyow66qU2tGoGlOJ1ICg4YS9Vqp8k1ZOCkRCuQJKUkJa75RaiP8eQwkywJzy6ptSkqj2/mVj8fH1UyjUPogrhmSvC+wuNGY8iJeuu0+rbF9/EfoAyrkHcxDSCdi/GnYm7COwp2CRZ497KLiDcDzw/BoCXgD7T9j12IeG2uK6yCbmXbXrJiNTz8MNvA+iqQjkvVOEo8zPdVw/hAmEGxuatnsLV03KSIWtJ5hXTlrpNB01RBoJlF/RcmFMxb6ISuRHMQbJRWn3JoT840zaW3LdnReit8O7XYeQ/gdHTod9EAkfmrWd3h3b8O8BzyRiKU+8b8FESFJSFdVFTkjfnfX0BO0Hi6xWY1wnXu356TdQrKyCWH4AMb3a6u3eN33FZfJCmhf3aPJRd+tOrzJeFh/gG3cuwp2CEioGpb4Bca3Y0W/sbQc2SHQISXpBnAG7GAm/Li+R6yOeguci3Oq/w0IjJPmIEgn3w/kvHuWlWubixX8q+rodje0e66cXBpnMD2oqKxsnY5XxQtxIRxVOwmq+d/bGGzy/7QF0F5pZHi+b2J5uverk3WufxbFHChEXhhEeApEQ0n03rBuPuRqWoGl6JKYDTtjA+zZKgu+Ux+NbJteNK4iADpZkn8GI3ZWT7AOpEza8nE61ftZ1nN2Jfv2eOti5h9qHJywKKWlFtCNx3oUwmbev6PX+Q8U5z8fk3fR52MPgkrfaRW/eQ6iFdO/s/610/Oqr0Wfu+nK37L2pTOoPqNJN91PpF66+86I/9yaI7vo1GZOy4Not91y3fnHK+PZfj6AV78CwOkT0D9g/FyatUTFYj97rcH2UnbxySDesDXi4TAWfXul8nE8gYRSSQLT/fcOj/dNefAb6GczGN5wqL9P+A6zycOtnlo/flE8g3fV7yh3nvdPdazuum4XteJh8a3oNFsa0QbQK4qQFFI1J6krYPRDTAxDT32wVLUiMDhNI2BIrK6IH5j95VFvazEBVbj760sQD69+Krj3LP7l83BuHuZ9IHkZGqUTEh3REXpp0pTGirON3X9zItzn5XvRpmPQCkXfOUC4wh3hlXZiElBXRytq1R7enghmYUGSevDmgFEqij9w38S7UmIt0CW7juCd5J5IMtBO3Xcr3ekTJh4eLVN2leitTroW+b2KYhGRXYwBdytrr5PtQlrZVX4sl1LIrbh3XpS452Wuj9UcyjJg8TMKUJsWkKOIRHvKACf37YqgSLXCcTzja3ijdRkHwFhsXEXWtX1sxU55h910C2S4wYbj9X09fezFa576MDnJxRGq5djyKKAwJwzgcEYFQCGn1tDWnaePPKo8lhuHd6L6Ysos/tuSit3EHUrTTkUDoCRRdSBswN4Lr+p/DLAsfxKQiG7Caw7c+vGxiA6rFIqLQ141Dn8KMYEEIFP0daU9F+8cwP90UDH9ow+w/t1+ydCLm0BbXs46m+/3gXxIoDIGilkjSAVRZ/6p+icoTHWt+5FlXhhrQkUDkCBRVSLrJnYoIfKAttecdxwYPfri0vxVFLnMUOcK59+NIVO+LJqS1+PCK5SQur4yVHeNavSzYE8jXazoSyBGQj9MiIul3WLR8movM4bZFe0fSKj0eTd3DM5i11CrnsYu+f2H74SLL432KwA7crYjpRJj0/Ai1K5rSsWjxF6rjFYOwHuxKW27rQ02JkSsGgVzeZNXub9F/9oZHxmNY+LD2NLqmWv3QBd+4oOlvncv9JBAFAkWp2jnaXIyvRIPQk+EuTDHH0igKOYVxPCSBXPF5yJN6+6AJgskDKvrHMGXchtUDHuc82r0NmP4VnEDBhVRf+8S5GC7ev6m16Q1Xq03JZFJ699KRQKQJFFxImO70UjQ0HIsvsQ9juZRQDBePdAoy8qEgUHAhYeGi8VWxRAJiemafm+jp8OxQQGQkSKCgQtqZ3FCB0VpnyvT16Ne9cVzduDYmAQmUAoGCCinTuOcsBFid9tobHJveXQoAeQ8kIAQKKiSsmDLcUboMgf7eDcr2MQlIoFQIFPQ7UsyoYUEQVGGExHodSxdtYsdSSTzeR3gIFLREwgijIWVYLcIxuiHmRGMGzfAkFWMSZgIFFRImNjmpwkVnXq1eHVi1jg0NYc4ZjFuXCBRWSEoNtIGv3MC+pvkhtksJ1QdPlrwpY5I4HVfnxLfJ+qrGxoZytNilUTJl5JhNJo1KJm3jtNXVmYxTZmN+qHr61sQqy/b5foUsjCQzuee2Eveck31prPrnp4OMq1JvHbPislDPCJqLdwS2MkmmTFPcHyZjkkLtCtbYsLdp14l4xLjGymQMdtbuGb95u7kJa95N/43FhCc1bsKUY+lJCCn4a1MiOuNln0fybMKUqwqTOgQ2wLKuskOcPKyyB6HKjmM4B88xWe8ak3VibeUO/3L9kLJedvz4f77IAVyT9V/8QDhpP1MRw3TCFtGMw58AsfvLwBjswznZGLgZ5bpGv26C+D2I0JMSM7oeE5ARAbJAgQipYPm0u7EuWASt9QL0sXsbmbV/lVtxDSbG3x9nrNLVmmnDOq++v39e2twIYxzOlU/ZjI/9UIYjwpH9Yjk/OiYc2n8MBzp+G1FUtnbQac5b+PXXcPYHgCb5/ZqE/wbxyX4wRjjYK4MN27OKxD85l40hRCRX43wctnGsmF7jOI7MV03XOwQ6Mkj2WbU/oXrH37z4UjAh9Tv6719pafztMiwTfmprug09hJAPkSMxzzWWDbe7MWF+K6ZXxR5kc0GId6nsREKdEWbRdvC1cny/JHB2tgT5S+mEn6I9WZEc03zhP5yXFaM84MR1hCHBZR968FPCw8LNWMBMZUut/ULap41uyV6SPXf/f7m/0L7CwEQJR7T4jjbOi7lj3PYtAgUTkk5mF8y9ow/gFXV2ln8fuGXeYsfjnSB6kQBF1Iswo+IVhRSVlGI8Q02AQgp18jByUSFAIUUlpRjPUBOgkEKdPIxcVAhQSFFJKcYz1AQopFAnDyMXFQIUUlRSivEMNQEKKdTJw8hFhQCFFJWUYjxDTYBCCnXyMHJRIUAhhSOlpH+emHStlaVM6P7KQbiE3hWs02roSRQ3gnsRvKSFjBP8GIZlHIttJDIQ4pkPJ930Pw6rhOUWHMtHOL3mJ4XUayi77xGGkngQzz3wYR7sKzCZ8086v/ZVMcm9y8NEakz3w3bBQu0opPAkz2JERUqmCbBjYH292r0NDH4C+yUeNDLSP9SOQgpJ8iCzNKJU+hai81+wclhfLY1yKSLVuz9EQUQSYQopl2wh2CLTyDwFXL0wBGnR1Sj09epDV3l193yZ+0Hq/WKhr6Z09yYLeF12FiqE5+Hhk5s/oIDBvzsolkjvZtLlPR2tbINxYRlMxNLZSUIPhFXBZJKJ0ThfzuvrVTcg6JaT98ghHVcOAssL8L9M23VgoSCfEt6E0F7pODevGyZmL+BFYn4O3nweJkIR6+xEWNKsfTZMjm2BdUyogv/oukpARHMqbABMWje3w0Q0nfOyMJdmc2mwmAYx5X2uwc6BI0y67hCAkL6D666BycIADbCDiUkSVhJcRHXg0xO76LpAQKp2IiipUR04eWTuwXUKjkmV+jwIKe+zO7FqB9I9cRBRZ4a/gF8iKvmQSFccAiKwQbCbYNUwqUbn3XXOBHkPrEQDkCdgzm3G0+/J3A9ui0MAD7fjEfIcmEzYKbWAvDtWMXqOWKrHrCL3nGNv+nBg1bo3/T6oXxTSQbF0aae0yuWeeqfgaTgQJu9BdEUgAPZSyzodJtU6EVRB8jirdiDdE4eqHNLOvgw/ZCnPa2FjYUuxT6p4Uu3rLDT8pMsDAeEsgqmBjYNNh50E2wQryBKrrJKAdE8dRCMtR1+C1cLkRVd+y0Jq0tQt3z2kuZusASFPTmoEIqKRMPleJ7yfgy3Ag24Ntnl3TNxeRAxBybeNqbDJsJNhUrUQI2dAyLMTMUlz91bY3bD7IKKCrQrJBAbxfDiISnpwD4dJrwZJZLr8EZBqnXycfQn2ZwiIvPPHmj6TAAmQAAmQAAmQAAmQAAmQAAmQAAmQAAmQAAmQAAmQAAmQAAmQAAmQAAmQAAmQAAmQAAmQAAmQAAmQAAmQAAmQAAmQAAmQAAmQAAmQAAmQAAmQAAmQAAmQAAmQAAmQAAmQAAmQAAmQAAmQAAmQAAmQAAmQAAmQAAmQAAmQAAmQAAmQAAmQAAmQAAmQAAmQAAmQAAmQAAmQAAmQAAmQAAmQAAmQAAmQAAmQAAmQAAmQAAmQAAmQAAmQAAmQAAmQAAmQAAmQAAmQAAmQAAmQAAmQAAmQAAmQAAmQAAmQAAmQAAmQAAmQAAmEjMD/AcOxoUqSKoD5AAAAAElFTkSuQmCC;" vertex="1" parent="1">
          <mxGeometry x="312" y="468" width="120" height="120" as="geometry" />
        </mxCell>
        <mxCell id="XqRsU5LYybaEt040qR8E-76" style="edgeStyle=orthogonalEdgeStyle;rounded=0;orthogonalLoop=1;jettySize=auto;html=1;entryX=0;entryY=0.5;entryDx=0;entryDy=0;strokeColor=#FFFFFF;startArrow=classic;startFill=1;endArrow=classic;endFill=1;" edge="1" parent="1" source="XqRsU5LYybaEt040qR8E-13" target="XqRsU5LYybaEt040qR8E-6">
          <mxGeometry relative="1" as="geometry" />
        </mxCell>
        <mxCell id="XqRsU5LYybaEt040qR8E-95" style="edgeStyle=orthogonalEdgeStyle;rounded=0;orthogonalLoop=1;jettySize=auto;html=1;strokeColor=#FFFFFF;" edge="1" parent="1" source="XqRsU5LYybaEt040qR8E-13" target="XqRsU5LYybaEt040qR8E-53">
          <mxGeometry relative="1" as="geometry">
            <Array as="points">
              <mxPoint x="880" y="550" />
              <mxPoint x="880" y="685" />
            </Array>
          </mxGeometry>
        </mxCell>
        <mxCell id="XqRsU5LYybaEt040qR8E-96" style="edgeStyle=orthogonalEdgeStyle;rounded=0;orthogonalLoop=1;jettySize=auto;html=1;entryX=0;entryY=0.5;entryDx=0;entryDy=0;strokeColor=#FFFFFF;startArrow=classic;startFill=1;endArrow=classic;endFill=1;" edge="1" parent="1" source="XqRsU5LYybaEt040qR8E-13" target="XqRsU5LYybaEt040qR8E-38">
          <mxGeometry relative="1" as="geometry">
            <Array as="points">
              <mxPoint x="880" y="550" />
              <mxPoint x="880" y="402" />
            </Array>
          </mxGeometry>
        </mxCell>
        <mxCell id="XqRsU5LYybaEt040qR8E-13" value="" style="rounded=0;whiteSpace=wrap;html=1;fillColor=none;strokeColor=#FFFFFF;" vertex="1" parent="1">
          <mxGeometry x="509" y="325" width="303" height="450" as="geometry" />
        </mxCell>
        <mxCell id="XqRsU5LYybaEt040qR8E-14" value="ChatBot" style="text;align=center;verticalAlign=middle;resizable=0;points=[];autosize=1;strokeColor=none;fillColor=none;fontColor=#FFFFFF;fontSize=16;" vertex="1" parent="1">
          <mxGeometry x="627" y="332" width="76" height="31" as="geometry" />
        </mxCell>
        <mxCell id="XqRsU5LYybaEt040qR8E-17" value="" style="shape=image;verticalLabelPosition=bottom;labelBackgroundColor=default;verticalAlign=top;aspect=fixed;imageAspect=0;image=https://pub-4271c874f759418fbdcd18b0e5cbe024.r2.dev/Claude/claude-logo.png;" vertex="1" parent="1">
          <mxGeometry x="548" y="405.33" width="64.67" height="64.67" as="geometry" />
        </mxCell>
        <mxCell id="XqRsU5LYybaEt040qR8E-18" value="" style="shape=image;verticalLabelPosition=bottom;labelBackgroundColor=default;verticalAlign=top;aspect=fixed;imageAspect=0;image=https://registry.npmmirror.com/@lobehub/icons-static-png/latest/files/dark/cline-text.png;" vertex="1" parent="1">
          <mxGeometry x="533" y="522" width="105.18" height="28.66" as="geometry" />
        </mxCell>
        <mxCell id="XqRsU5LYybaEt040qR8E-21" value="MCP Client" style="rounded=0;whiteSpace=wrap;html=1;fillColor=none;dashed=1;dashPattern=8 8;strokeColor=#FFFFFF;fontColor=#FFFFFF;fontSize=16;" vertex="1" parent="1">
          <mxGeometry x="675" y="396" width="129" height="54" as="geometry" />
        </mxCell>
        <mxCell id="XqRsU5LYybaEt040qR8E-22" value="MCP Client" style="rounded=0;whiteSpace=wrap;html=1;fillColor=none;dashed=1;dashPattern=8 8;strokeColor=#FFFFFF;fontColor=#FFFFFF;fontSize=16;" vertex="1" parent="1">
          <mxGeometry x="675" y="470" width="129" height="54" as="geometry" />
        </mxCell>
        <mxCell id="XqRsU5LYybaEt040qR8E-23" value="MCP Client" style="rounded=0;whiteSpace=wrap;html=1;fillColor=none;dashed=1;dashPattern=8 8;strokeColor=#FFFFFF;fontColor=#FFFFFF;fontSize=16;" vertex="1" parent="1">
          <mxGeometry x="675" y="541" width="129" height="54" as="geometry" />
        </mxCell>
        <mxCell id="XqRsU5LYybaEt040qR8E-25" value="AWS Cloud" style="points=[[0,0],[0.25,0],[0.5,0],[0.75,0],[1,0],[1,0.25],[1,0.5],[1,0.75],[1,1],[0.75,1],[0.5,1],[0.25,1],[0,1],[0,0.75],[0,0.5],[0,0.25]];outlineConnect=0;gradientColor=none;html=1;whiteSpace=wrap;fontSize=12;fontStyle=0;container=1;pointerEvents=0;collapsible=0;recursiveResize=0;shape=mxgraph.aws4.group;grIcon=mxgraph.aws4.group_aws_cloud_alt;strokeColor=#FFFFFF;fillColor=none;verticalAlign=top;align=left;spacingLeft=30;fontColor=#232F3E;dashed=0;" vertex="1" parent="1">
          <mxGeometry x="897" y="325" width="780" height="449" as="geometry" />
        </mxCell>
        <mxCell id="XqRsU5LYybaEt040qR8E-28" value="" style="group" vertex="1" connectable="0" parent="XqRsU5LYybaEt040qR8E-25">
          <mxGeometry x="91" y="198" width="85" height="97" as="geometry" />
        </mxCell>
        <mxCell id="XqRsU5LYybaEt040qR8E-6" value="" style="shape=image;verticalLabelPosition=bottom;labelBackgroundColor=none;verticalAlign=top;aspect=fixed;imageAspect=0;image=data:image/png,iVBORw0KGgoAAAANSUhEUgAAAHgAAABqCAYAAAB3epVCAAAAAXNSR0IArs4c6QAAAIRlWElmTU0AKgAAAAgABQESAAMAAAABAAEAAAEaAAUAAAABAAAASgEbAAUAAAABAAAAUgEoAAMAAAABAAIAAIdpAAQAAAABAAAAWgAAAAAAAACQAAAAAQAAAJAAAAABAAOgAQADAAAAAQABAACgAgAEAAAAAQAAAHigAwAEAAAAAQAAAGoAAAAAAPpwmQAAAAlwSFlzAAAWJQAAFiUBSVIk8AAACmNJREFUeAHtXW2Sw6gRHc/mXmYukVSukVR+D/69tXuNrc0l0Bxsx3lPBqcHgwQCJFmmqxi+upvmPfEh21Xz9rZTuV6vCsnYpHcaZg9rCQIgVSOFpBO9BNC92IBRt2oluUZWUCb5ai8x9zgSEQBpBkmKQWUkkjmSv6p1ouuutiUCAeIMCQ3FFNBF01WHdHvbxgiQRCSDJCWJLBj4q9mwbeMp9eEdAiCDhEgxqCjXn5rDxidap9p2vQYIBAhBUz6xMrSITy11erkxAiQRySD5YmoNDcf+aq7mu1aMh/QD4I3HKuuurToJ8H0n+pCAZk7qPVM/Wd0BDQNljQbkH6fT6QP5l21rkQ0tnD6rz7/VDhzEKvj8RGLu5AJitau8em4xagoD8B44QFWCETi3XEXHVgbkJJd5FyDAnQ0ZF0BTwTgfxL3KFs2gka6IWNmoB+QcYBzEtvXshsB5JSAUxykiGJwqJK5a+UReOrGEdlaIU3XBqIMcefEWDWI1HEli6fiCiJl32QkCiwlG/I7cAeVO7E4I9cMo2qKts06uj+qO6iUreEfTOG4ovOdgdkxBwZGogx22sRM8hc6KffZOwxEH7x7DS2xUYPc2RXInOArd6h3uTsOBh8DofpsK6Dw0HZXgy8NMn7/hx10HK5crW81N63AE2+1tmJv4q/RvQjDPDDyBnYQVnrJNCOa87EpbYYqvPUSN9+DXRjBj9vamrDJMilU7wcUQpjmw5MqbcpphoVYnuBDAFPOtyGVsm53BKcAcQccjl69vZyS1YG785i7brBOcDVm6gU+ufXvg+2tIhlCjaOP2zpQlneAsuNKVQ+ROWYN8/lYtJFz12cSGHGW1YQJOVJbhCygDmPEXLhYgLaeMNhNqlzolZd//oksWnMigVUlAR7O12LgVd+G2/DRzRPDjT3SQh+R5JtIIcYBiBDBBPIROsL80tEX+YRQi1qBdbkWojtIk8NKJt7bHzM1t+tMYCL0mOPn+Jy9ZUFYAhtsNcycDCtx6mFNIskbutqVP1Nnuf6/JtkMK5mswMWUnl7otE6dzA0BcHNOuMbi/Og3aosZWnzpS9PQoz9+LyRox4dn5evrCtHpxjOXkQ4xh2OFWo+tOfSrfSu3dgM+QY67ZKxc2CnNjarF64fYm2GHH1647wXZgEqusDrNkYoXNWDwK0XYe/vRYJ0GKBchinG7mjf9iEgZJikFF1RgWfvyt3p3ZNdw39yFBiZR18yBKBvAIMKirEn8hW/r0xkH1x7t0yGwXbYjTTCSdGyTnjbSGKMYmb9G89Y77dm7Qc/rwO0BnwKyoymMgLn/8qt7f31VcIb3n+x//1unaYc0GmHBrX0MUBhkkwc0HBVgag0xu0adffvnEg6AqBcPx9ioXBDY0CI4LSDm/qxLsBrVEu+pq+fufv2nsIfcd5Pr9/fH2z/8MqwXgDWR3Nq+1rIrFcZ8fPb2XuXsu6+vpdJYR1zoKpM+9lTdZwVMgXP/+rw+utJDOSJC/feN8P12vX77+9/f34Le9+bYPCsdr2B3BhDh2OTr993fjU3D966/LdcNt1o9nb/VdElwdJHszv3qOuSP4u0Xs4fJMq1dxdmo4/XF+eoNcltxdDk+wu1j55I7g8f1c3DgtoNoDdq3qFLmM4SwDwQNhUFdIk8QfnmAQOAecxG0PZf/1ifGrpYEd/xb9/6815zHK0Z33tliDr08uwcnDBTLH8fFXMG7lIyA4h0/v79zW7nLC9rbVmXsPonHh8ASX4lfxU7XSUBbZZxMsbnuTh/uiaPZp9GPV7zPEeFRLzmB3afkE2RQdd997tkYgm2Ac/ji63i4i8M+R5oMSzfnWFOA2COyaF7MJZkSYsOakUXwZopsz0WiA7DNYxkGisXpdk9y6Wb6w33X2PBkB7ojnZO0ZxSKC6duRGCF6HN7pzMTy6t0DAFAWBJfb6ph9yQrK3D3lDup136rFBDuvjkSP6HFV27bx5d3p7yH3vz7cMibg9wGcdCSGwW+H/kObr8N6NYKdc49objUKiUSzPCDtR/BZND+rdl8t8vvhLT/4cNjVBGjRJSslAAaL9AHdweorm2+TRb5SvOLh4ydcTCxvE1y7UZsRLEL2zw7RtW5x/InOukNuPlr1LXpiRsNE3/KuyMoMOoTu6c/fLtGVmniuBX3nN55x5qp8szyLNQg+25CKVzJ/zpM3vUdte8bqN3z58NCb87A8GGc3cHymtsKnCMkJ32tVzRGdY+S6pt9n9UUcBCatiuYHPoFRqpEhfKsfg/bKugiAiNCTpUuigE+5O6gSX1vZigc0VNRbxZU67slXJNFo818XLkve0aQv2D+M5Y+9xzpZnYkrCxu4U/Dn4zszRHY37zvTHyyRHE7OEz03FPS5ao1NyG4yZ7fXfkTP+YSSxGcWFzc/+DJIa8gYU/QWbVcsJ0FF98R9on5G/cv2ozj+Ny+FzOmwLGVA5SIbnqmMeTL+kAzAgu2cN3G5fy4fUg60DWjjSqst5EdlOUXwfILlE4vqWGebYcUTgzpT3kBZUe1DGXOUuOi5qCwuyNq8VRT5Z1DCAYoPYtCi5iZ5tH7MOZlk6BIjim6BA/waOocs90/j0cXtj0GmWgT7TD6BgcQkCi70iBclqlMyb/g1dA4p83/zMf5VJQEdyZagClyCAKPfWJ1gfykevv81vmwojflp7O3F010oPwF2MYmCMBSDoqYA6gRPobOgbwnJoE0J6u6EsR0h3OsoZ0v0NSnbUze4I0CSQQ7r7hXqjLaPu8Kygm9vUtx0glNQWqDjkcwVakpIhu0gw7APkGwKlvsWHYSlTiNJhid3Jo8k1/Gc7qWv4HSsFmn6K3mRkwKjvoILwEs19VZyqlkVvU5wFRjnnWxF8q4IxsWBt0+KnocsrAHb8axDnnTLDHtp02pJHtp4D3vdzRlMYhAiXytqiKrh5Ag+dkMwwLyTa5/0I+BbbQ5Ld6RdEIzgNZBQFg33WmGrx8/wQA/AYPwgg+XIjFWkfbJ5c4K9rfnyqqs3RCzbgM/UAz/9sxxQvznBiKFvzRNrsPSBr3GLNnjK9ESM0S5rp6zC1JMa9dE7phEoIVgS8gmyjCVsekTbC12Folu9l9InNWnQrpSPAElFkqJTvMDAOKMU/VQd+OR78CipNmvqITBzi27ZrjcXaxP/cOqTzDnoWDCeflQvZj/VDt/PQjAxailVcR0xR7SzRHs61YOA/07w7bEZsT2NzFT+QxLh0p2v9H4/Yzk2Gyg4d6uPD/cKrk0r//RbKjbGUjeT9oB2mFQo7cQkuJoNkhQjKrp0jJA9/O96BYdifuo2AB7atscV1mJicrwW/rvPCAISeJQpJF5H1LOb4Ysr1yA5qeY7O5hXNgD6/oouJiLg06BNvTLOm849QAia8lczSaShEINyJ3ZTdsXgIMNfzeRKC5VgkSQiGSQps3ZBZ72xPQJgySc6SlZA16BNtY+yj1CEgCWOZEnRzikaQ6tWuf6ePwkCINJfzSTc8I8Q/STT6WHGEACZMaJVzKa3PyJQ/aPCxyGWt4BkBWumM9IXPn7TyLtkIPA/ux1Rpq92F60AAAAASUVORK5CYII=;labelBorderColor=none;fontColor=#FFFFFF;fontSize=18;container=0;" vertex="1" parent="XqRsU5LYybaEt040qR8E-28">
          <mxGeometry x="11" width="58.87" height="52" as="geometry" />
        </mxCell>
        <mxCell id="XqRsU5LYybaEt040qR8E-11" value="Embeddings&#xa;Model" style="text;align=center;verticalAlign=middle;resizable=0;points=[];autosize=1;strokeColor=none;fillColor=none;fontColor=#FFFFFF;fontSize=12;" vertex="1" parent="XqRsU5LYybaEt040qR8E-28">
          <mxGeometry y="56" width="85" height="41" as="geometry" />
        </mxCell>
        <mxCell id="XqRsU5LYybaEt040qR8E-33" value="" style="group" vertex="1" connectable="0" parent="XqRsU5LYybaEt040qR8E-25">
          <mxGeometry x="631" y="194" width="83" height="78.44" as="geometry" />
        </mxCell>
        <mxCell id="XqRsU5LYybaEt040qR8E-30" value="" style="shape=image;verticalLabelPosition=bottom;labelBackgroundColor=default;verticalAlign=top;aspect=fixed;imageAspect=0;image=data:image/png,iVBORw0KGgoAAAANSUhEUgAAAJIAAABwCAYAAAD19ykHAAAAAXNSR0IArs4c6QAAAIRlWElmTU0AKgAAAAgABQESAAMAAAABAAEAAAEaAAUAAAABAAAASgEbAAUAAAABAAAAUgEoAAMAAAABAAIAAIdpAAQAAAABAAAAWgAAAAAAAACQAAAAAQAAAJAAAAABAAOgAQADAAAAAQABAACgAgAEAAAAAQAAAJKgAwAEAAAAAQAAAHAAAAAA0e+8BQAAAAlwSFlzAAAWJQAAFiUBSVIk8AAACf9JREFUeAHtXW2S4yYQHTu517CXSCrXSCq/rfmdSq6RSi4h5mAZ5z2GZtsyY30hC0lNFQYaaLofzy0ka3ZPLyum6/Xq1PKsv6p2t8r+r5L/ouNdycOY0+n01Vg11KpjETiNnTB2vCLLJc51Y3UsON5Dt5DNG8mmI12USJE0DuZIZGH9UfKqkxuq26rr5eXRJiuy3sxBwynBUJs4xSMHgmHdBnVLPQjMIlKHOO6LtXyUv0n/I1LImGeUyn4uR6I5VjLJQxaIXovtGRtXFY0mUgSflymXsdxDFgBn3xZBH0iu8KWwaMVdHpEILnKD3CLr1KLB7Eao29xQ+EffmXOp2ZxDzzYYqJFAbQc9til3z7anlvXge45UlDW12FiFHZEoLUqdWjRcFQZWYgTwCOTRIFFWiXnrmhHB0dgYMAO2xHBTIAGMVjGoVV1WHYhAh1DHw1ATCHU3EDcblkEgkqkVTDND9imCw+L08b5BC27poXCFs+kOZEFMD6takcntGgTlaLNrR1dyDvg6ZKZ9R/tPH6/XlXA+xLJHwPgsOwlnndStNARGIyDfFpT7Dr2jkSkzAbge4wyqiMRqUwY+00IENIkI7q5RoYOd1Oza4Sc5B0xTJBJ8n7T0OsuIkxnHm3Us2vaqORwF42171mO9dhJ13qp2v0lNjwrrBgIRuxalpBYVR3BEwPpuU85JyEimO0JRtlsgJjgGPBxyi6xTi4bT6qRTy3ZXf+Qk+nKE4hSR3wC2O3A6DsFvEidHHmLSsq8zJTTZyZTr243s08V+JzFOyCNTdNnGfrcbYOAIfCJp6HeLnEsthL0+y8Q9YdP15UQnKcT7x4Pf38aUJiq6xDJXeAj5/jaT50eN73DDF0fbkBzyKysxOamo0se6vLMtbTXkvjoF43stdUsmEanrkiIWN8J1+zNtH2VCNBkicmmHcggBFSFu5saGi2UfUbpzfRSMIk5XiRGpi8iIdtxYF6cMJdiIFYoN9UpTIAzbQ8ir5j2sGpEewjO9U0UP19GiI4bu6o7TfVL3UsmUEvnSmJJEyax3IzoCkXigDOnGc2sUReAIGKdf/4siZ8oOh4AR6XBbvozDPy6j1rRqBHAeO+n2HusWkfa4qyv4ZERaAfQ9LmlE2uOuruCTEWkF0Pe4pBFpj7u6gk9GpBVA3+OSRqQ97uoKPtlzJIB+/ufP5vrycimBPx4YvX38/FtTQteSOkr7nCISfg+q3vmlgC1FItpXUtdS/pa2kz7riHQBmfj6RLOkAzXrvv7826wn0Kd//gSm20qlfE4RKbpPMjXbgsKsrQEBTaS3aBDJxNTUYKDZsA0E0qWNlzSQh1ZfoumX2D705W4b27i+lYlINCWej0ioBk0SKpAKbZYhYh35DAUMBqUtnpUGOfZgkL60pWEkCzIPnnK5Y18gFkjFJGRLc6xybARuIlIXihh9SBqHPuYQoaSEXNpCOI85Hv2HTn13QhKx+sZNAXGobhk3ZY3cnIdEkgmRHB5tTapXtB0ykxDqAnKx7fmB9P5ZvBjBIhB7LQYRSTuvSBXEKlqxLYRyoVMRLRIsiu+I1pVLm+c2nxpWqRaB0UTqetIhVsP+SC5WHT+QdPRi2/EDyYXP7x9CxCTpEDDJx1ZgJ898lhZCYDaRcnapKOJz/RmiyTASLpdcTmiyehBYhEh97vURrW++9deHwLk+k8yiLSJgRNrirlVo8yqXtgpxCCaVfrZSq5/arlI+W0QCqridkweqGuNJ9ZK6JhkwcFJJO4Mu3EGFNHD9Qw7jt7bUN5cAltanN2UJ3UN0WkTSu2D1yQjYGWkydHVNDO9gn06veBocDDv9+1eLf47v/VnvjxuR6uLDeGv+/sOdzuc20CeSKCjhP6SKXw5wWbrwDLM0oezS1rd12KgwpMLf/BiFSCKx7/rx8Y1vFISMuhyoQagLx4ZxC30YkRYCdnG1IDgJwnVImOtPv357+eV3n9ZFnVFIk+lFvhRpULmKEakclk/VdD6fHRfsu2xpMp1++CEQj/NKp0QkPANoSis3fcshcOXBGunj48P3rTJkTJ+Ovv7072zHgW/4QbXpm3So/niYrdXnoW9Z8lnQXB8erZUiUlzkYpFpLtxPnj/k3DNkzEyz9e3/G3TxGkoysbTopMHFXVs40GrZxLpEh0ff8D7VfE6EZ0aOZ6WP7682Z6dxDMNR33kqO5nzBkSzFJHiJY1kkhSik0UogaOu8vrff2GvQJCHt/b6H4tY8qyUiESYSCZkEDf9iCkRCnyyP0Gqikq4vWeEoU2JTPoSxrMdohb7OCaM1Y8HKCyYbogkejOEYtchSZVus/Fzg+BTS6lv7UkYPpzkZShkPqiM//MTH1Su+mRbEeobwAvsjyBqUqVohYqrBeSj2EGC8KwVIo5++o46ZeEctmAkEpz1YVtkdyUI5SFkbiJZHOqvyCyZSCymC/pZen4gvX8W9ndtEYfFCok4cjDmjUHYicVWvFU8iEh6iiJVECtisS2EcqFTES0SLIrviNaVS9v+ri0hUXdlNJG67nSI1bA/kotVxw+kV2THSkyuU4pciCht6kr1ORXYiUhvaSkEZhMpZ1gkF7t8rj9DNBlGwuWSywlNVg8CixCpz70+ovXNt/76EMje/tdnpllUOwJGpNp3aCP2GZE2slG1m2lEqn2HNmKfEalno8a8QNajatfdRqRdb+/znEtvSNoDuzzo8t5PvvdY0kfvT1lEOhYXFvN2lQeSi3mzoGK+inHz5z4z1ko/rM78v09yJiyhW3Tm1hOZRSRBwspZCJBInhrw+1fD0pIhMAUBEuktTrwYmaZAaHOIwDn+gGpkMj7MQiCckUCmBlo0mRCc7FIXkJXXh5/wuuqsnVx5cjpsk0zxWZIRauVN2eLyd7f/JBSikfjCNxYvaLP0yO8sMYZ1S4ZAQuCOSOwhmViCQB6FQyaRWDKTWCg+L4UylgJLx0XgNNR1kKeJY0mqXJJL4uYilv5r1JxjY2QAtPdfR5MHfI9+chizph47VHdpn7MRSRsmdRV5eOlzkDO/xhJF+gsSiViUeWReDiVVSTLE16++HGL34DLqagZPWGlgaZ8HE0n7G89IXstUxHqF3MU+llKnqEsyypg02dj2/NAprqlFxetzI4REg+KGLaiwlM+TiJTzS0Ws1K0iF2UkGJMLn99LLYtd9xECuqRvUgn7cNWxtBQCxYiUMzBGEZ/riySTLieVWArptLg7RvdZfWUEFiXSI98iyWSIl4qV20TgvE2zzeraEDAi1bYjG7XHiLTRjavN7NXOSLUBUdKeoY8Bho6bYtuSunP2WETKoWKy0QhYRBoNWf+EuQ/5+leYP6J0xLKINH9PTAMQMCIZDYogYEQqAqMpMSIZB4ogYIdtBWPpA6hSXW21lM8WkbDFfBmt1E6X1FXKppyeknZS1//ZsS4mx8VFJgAAAABJRU5ErkJggg==;" vertex="1" parent="XqRsU5LYybaEt040qR8E-33">
          <mxGeometry x="6.819999999999993" width="68.36" height="52.44" as="geometry" />
        </mxCell>
        <mxCell id="XqRsU5LYybaEt040qR8E-31" value="Vector Store" style="text;align=center;verticalAlign=middle;resizable=0;points=[];autosize=1;strokeColor=none;fillColor=none;fontColor=#FFFFFF;fontSize=12;" vertex="1" parent="XqRsU5LYybaEt040qR8E-33">
          <mxGeometry x="-1" y="52.44" width="84" height="26" as="geometry" />
        </mxCell>
        <mxCell id="XqRsU5LYybaEt040qR8E-37" value="" style="group" vertex="1" connectable="0" parent="XqRsU5LYybaEt040qR8E-25">
          <mxGeometry x="302.0000000000001" y="53" width="92" height="92.5" as="geometry" />
        </mxCell>
        <mxCell id="XqRsU5LYybaEt040qR8E-35" value="" style="shape=image;verticalLabelPosition=bottom;labelBackgroundColor=default;verticalAlign=top;aspect=fixed;imageAspect=0;image=data:image/png,iVBORw0KGgoAAAANSUhEUgAAAJAAAABSCAYAAAC7Zl0HAAAAAXNSR0IArs4c6QAAAIRlWElmTU0AKgAAAAgABQESAAMAAAABAAEAAAEaAAUAAAABAAAASgEbAAUAAAABAAAAUgEoAAMAAAABAAIAAIdpAAQAAAABAAAAWgAAAAAAAACQAAAAAQAAAJAAAAABAAOgAQADAAAAAQABAACgAgAEAAAAAQAAAJCgAwAEAAAAAQAAAFIAAAAAvtJQpgAAAAlwSFlzAAAWJQAAFiUBSVIk8AAABoZJREFUeAHtXFty2zoMtdx+N0uqsol27jba6bfl7zu52+jkbiLuktL/msWhCYWxXqQkUqQIzTiSKZAEDo5BEpRSHTwOpVRD4iePKiK6HgLnqqqa9Zpbp6XKpxkikPKRF9l1ESACeflr3d77W/vYXzxemqIh4xrnfTflH+4xb2hF+60REAJt7YHM+xcCZe7ArdUXAm3tgcz7nzWJztzm7NRPedEiESg7OqWlsBAoLX9kp02RQ9jx+amhjKhk1BfQlTKa5+vX702REUjIs4A5pipjWGQEYvjU1+/JbQ2wbimfq+cn4s/tKDICsfFyXo6AEGg5hkW3EIxAePQDm4CRjqZoL25ofDACkU0xVzkx+9rQXel1HXwSHTqLigiXHqzlaBQyApWDYsGWCoEKdv4apguBXFH8+W/tKlqSnBDIwdvY+qiOx5fq//9eHMSLEglOoNDL+Bjeul6vF92PUjXIFKPPXPoISaBzRBDC9vXPj4u6Xh9hDy35TkKiN88GIxAt3xss4SMdzZtJga6ERL3ABiNQb2+5FxKJaPdVRztEooNMrA9CIE9S4xkYJhEm1qWTSAjkSSCIC4neQBMCvWHhdQUSHarqgkrVhw8nr8o7EhYCreDMSqlfKzSTZRPBCfT6+tq8/v6tcM4SoQGl9VKe8kK4raPRgNzei4MTiML8Lbzz+Q7RpYnGu+aifAV59CqMeuP8UJSOE+wkPIGU0sveA58TBMFHJZs8ejVGS3uf+nuTDf480MPDQ0Og4dN7INHYeyPBwnvyJD90UZ6qneCb4VbDSpN/nrcttSE4gRLkwTyVyBk8bCHyLAV+nhJutWyiU+TvViIyUWmNG/SGxWmJPUKgLry9JTppCMBTJo+JODSvrLURFGnUnz9nfW0PtSR3PB5rVVWfiWD6hwEi6fmcLacrjv8RAo3jc7tLgOsLcsj1y7fmVtj9a78v1b3rXjLnfbU26iDiMHGGyEDl18PhAo10PUMk/cjK85NXdA0/iXbHLV1JAhyRR3359piiki15SLlWzyHy3BmAoRh2oR5uYZhGe3dig1+pnvuBJTekc5r49lnHkWLOL72vvU3LMGxhT44OkGDJ3Mwm4thwZuMnEWhT7y/v3Ic8cDw7v69nkI8jUbt66xO0yoRAFhi5XdpDzZLIY9ut26E5FCbXLk8aBCfQ1FZGjploG/AtrzFfQf8cNdbShVduLlEoOIGmtjLWMrq4dnhlSIavFX1aDDEBd4xC4QnEWxh8brW8XSx95PWuuWK+Io8DY9eOPmjTPqaiUPA80NRWhq2sXLsjYJKAh/aNEfeqTpIYxmiCXk8Jh49AUxrI/awRoAjofuwtD+RueTqSGLL0ctv8l7D7XNbYMn3KiqG2uPy+bZQXGYFCzxumHLWH+4xhkRFoFw7Ea9bYCMULj47bFhxBOKKM4sAZbuyrjWzhFBmBRoGTm14ICIG84EpPeGqZPVfjNk0w8cJAcAJNZaLnGlh6Pc4Wh8KBs9xTaYLgBJrKRMtWxkwKeGSLfXuw99im5lfhCcQZaD77WiPygwhwFFp7GOPowyutQQXoRnACIRP98OlTZTLSHV1kK6MDiXuBFYXeRQ33FjqSdjsue2zBCdTRUApWRYCjEKKG7fy+TrB8H1vCoz5HH9f33YRAfUgnWMZzxY5qFIV4qHEhUae+KbDJo9tzzS0NNdhXvpetjD7bUi+bwt4mAB7FwHtfLkMQHhrTcyjzJgfI41TPAEby7seUEe4tiaQPAoR7TfIv9LnQnPFxsC5nj1mAiYT/8WhHFPMskU0ckE4Ph7YctzNyFgKNgJPKLWcCGYXfRSMHI3yjjt2kEMhGI9FrXwKxGSASrvkFQi5HtNHleOnQM+K0bcy5wBCGY05dqTMfAYK81sArhWEsqUNWYUm5Y1CZ2tz5NSix0Q0h0EbA76VbIdBePLmRHUKgjYDfS7dCoL14ciM7hEAbAe/Z7Wcjf/GsF1xcCBQc4n13IATat3+DWycECg6xdNAiYLKhkoluEYlzkTLuei+MFGwIilMcOKSXwAicace+CdxH2zwTSKJKC0n+F3hMOKoVKYfIqEBk3Bn5cJMNV5lEZ0yaFFQXAqXghXV0qE0zUXfshUDrOK/YVt4RyKzGigUjc8N5uyO+GSAOT6TNGd+b+JpIjz4IkI8wcX7nO5/6a8i2yz0oQw3iI/kgAiHD40I6IweEc7SjJRD3aBEJIbHmcjknicDFaBWdOIzGXy/gNLH2/+TSAAAAAElFTkSuQmCC;" vertex="1" parent="XqRsU5LYybaEt040qR8E-37">
          <mxGeometry x="3.3599999999999" width="84.29" height="48" as="geometry" />
        </mxCell>
        <mxCell id="XqRsU5LYybaEt040qR8E-36" value="Prompt &#xa;Augmentation" style="text;align=center;verticalAlign=middle;resizable=0;points=[];autosize=1;strokeColor=none;fillColor=none;fontColor=#FFFFFF;fontSize=12;" vertex="1" parent="XqRsU5LYybaEt040qR8E-37">
          <mxGeometry y="51.5" width="92" height="41" as="geometry" />
        </mxCell>
        <mxCell id="XqRsU5LYybaEt040qR8E-45" value="" style="group" vertex="1" connectable="0" parent="XqRsU5LYybaEt040qR8E-25">
          <mxGeometry x="493" y="43" width="105" height="106" as="geometry" />
        </mxCell>
        <mxCell id="XqRsU5LYybaEt040qR8E-15" value="" style="shape=image;verticalLabelPosition=bottom;labelBackgroundColor=default;verticalAlign=top;aspect=fixed;imageAspect=0;image=data:image/png,iVBORw0KGgoAAAANSUhEUgAAAHwAAABeCAYAAADhenCDAAAAAXNSR0IArs4c6QAAAIRlWElmTU0AKgAAAAgABQESAAMAAAABAAEAAAEaAAUAAAABAAAASgEbAAUAAAABAAAAUgEoAAMAAAABAAIAAIdpAAQAAAABAAAAWgAAAAAAAACQAAAAAQAAAJAAAAABAAOgAQADAAAAAQABAACgAgAEAAAAAQAAAHygAwAEAAAAAQAAAF4AAAAAJ1NJEAAAAAlwSFlzAAAWJQAAFiUBSVIk8AAADlxJREFUeAHtXEuS4zYSlVRzhfFqeuvNnMCrovZejtvhY0w7Zk1q7fBcw2EfYsQ+WJfmPQgJJUEABL8iJSGCjV9mAsiHTPxUvdu9wlNpYP9Uo00N9o/fiv3bW0mS/eXy9ePnX6sUeW7d5XIpQGvkIv663+8rxHcLL8Ch+sOfv1eXGygODCjnNAZ4gF1BmIDt5CJxuhfwzw24WPXVCjUgLj0UdIB9hpDCCWon7gL6cwIeA3q/r+nOx1i7deEEW4cama/47m7tTwd4rvsO0XVZe8SFNyw5QmMmxBJu/nkAT1j15fOXI6yvFUKgk8gH3lo1rbdgvQ01YoLNuBEs6O8oLBoVC6ztjw94Cuhv3067X/5Te0pvZUPAC+gxiwXQwUmkhUd4ScKJUmnaqdIPDXgIKCru8vFxzAFaK9mXVXz3aVf+84fd+9//ocmYPgKs2i9M5SPAn8BT95WVaod1jwl4xKox2FHHLCpMgCfY/FQgOEeV75WMgE4ZJ8iteglLED8W4BGgd7C4S6b7TujKVRH0b5+/6B33JKAA9ItrpJ2YpI2HAVwsr6GniYHWsjU4sMBJ9Khloq0TPj2p2Pxo0E1HnbLs2sOzKKWPuWUi/yKBVn04nP22MLDR7tuXqfManDkAp0y0UaFNH3R2YzDwTcApyg+YBFPeLfviB+cXct+x/i0BuLQ9JfAHERqNce2IhaWkF4jSLFzBvhir1leidN/YfZszdcZRa+Euj2oOxl5BwBHfyRNU2sngFcezxsJdNayG6cPhUFz2+/edUuiQo4yTO3Fi/+fvmIO3gEHM6r5vLd1SS1r4rVUcKcNu/ohJUWu6WLoJeICK1vTx8VH3PbcGRE1WpAG/10S8F+CiRLTPfUth89mA/00ExOLVb9wezH3HcJiqvHsNn6qll5xVaOAF+CpgWK4TL8CX0/UqWpoNcG721nSUW4W2V9CJzk3bkD4SaJ7dyYv05Dd2PIZJvxrnMyncbuzGNdcQOo9lQxre//Xfsz7Dm8eLyI8MhshfA489Fpmu4Ax8XLpPQ49lswDOwWsrF2WgscUvSKTtR4uHAj7bGs7zOwHWiqabf63rWiPLp2ezcDeUwGvW1i294b3UC+OSl1RDLXx+wC3yel0316G23N3bywzhY82AnyAJ+xKxvtrV7S05kYcCPptL14pgmq9YVAjTfOmSz+zm+UgjH+o5CRD1D/bxpz9jPkdqSTIPTvmi7kK5GOAcnXF5ma86Q7RhJhFe0lKgJOX2nDCcwDKJjVz1uphsZ2QlrLuACH4SCkl0xbMCHlK8+W0Ze0Xg8VFhdOHu+/nX/ZC1ULdFrxFzuzGFcMkxE4ZHygTwxiNZIeznkL7G+pBTDrAr0J092tKWe8XtLPR9DWbA/KtJPoUyTPEKBcXRPS+iFLRFwEzf8Q8nUm67en+R4uekcoBjssofMGj+ufYfFtBS+peIT7gXqGL1BvDGQCKUQwdCS7vAaiNiJy8WS88FOzV2N2msxZs/J7Zu29VhBBpwXd4anJXTxwgAdAE5BJqxDjUyJ3wFvtBECAK/p/vSlgHmYBgKeFDYigo14ATL/6VPrKsNfXg6bIDOOvt3531uH7uAhhXXum8JD9AAHn27BrEMt9P0NiCNAQrTI8QaLOum9SQIDbEBqCXQVu54CIqnR1eHREhOX6C1PAs6i6IW7wDXjGtKc0kIKWbKPuoNnlt+9ERgY5wMHX/M0DVRTJ+9SeAbEkC7BMbWsNJAfaPIAv+OwqJRAQ+2asC1AucEXVunD4CnsO4sJoq5TNJWpiaLHhOFuQlmJVuwxEJ7Ae13zpNlqtcLuG9hdjSzAK/bIjhTvexBbuO0o9vBeGJjAVBnVBPs2g57VAR5zmusF3A7RN8iWBxT1GCteED4Vufkgs5YL3/CzYD1mX1hMueXvdqTTD4GdiISNgU4xxACneVTKi24jrMRG2J9kHrGqf74/NFJpQVOlNaAHyaSOasYnqmpICp0joYIhshttUHrx+0bfGIpNLGYNMaKwePTaP5WGz5xjzzArHqQ7zYBuAyIwFNZorDcyxXhj8UaDF+mvmwx/Fzj5SrYTkLpj6mnm5dzd6RBd5sZqc8ttmCXtGCEKodvlt+05TQ8lMYB8sdvdW8Z1vL8dVjkEDiA74Jxw+oczfqPz18qR4CE9Ae0OzdxwENeqTP03IApWVrGiHSpeEuAznxyZ78pC1eD633XTwDM4wju2w0wVH4HAA5ANGzAhodp9EFlCK62dMOrXLt7NKKsDg+gxHYlTyDgpwOBZ6h0oaTRx+cIeofcGjHdtHepYqzbrtsEsmGtLQG3At2Of6bXG0NyUC7jXNmkDQULLq07FNiGq9uuhYeGllvmrcNT/olxypIFYOkmvQA/TgROMCnvG+O8XuGD+Ja1U5QDm5nnAVy5bwdw4gnYvSlASVNtsny3TwAkGOD5Fj8idABvJHNWPEUIudPUZYmm73tmzuLF+t66ggUSfdtKgRdy9dsCHEpyT7nc9SLI/0fDdGot1GsraXWgq/V5Nb2/FmveVtrrY841bdYEaTWUX8AdnFBv16XbXTZdoXxUXGwtpOIJrAxcx+SP8Wm6nDStVuj0ZJQyF3MHz8mh3bidxI5mhsTy53AMkkpJudMx4yR44K9CMqwVVwKupTWkPh83X/AmBSt5jEJ9zfSoQIB5JFP7CaRHiezLvBzgarAcIkDfffRVIjZZ4L0uQ5DHwYpFobxknlZM+amg3HelXbf58WJoIweAOEkUX1A8aaQfJND0ri4BMD1CV9+DDfconB9wBbSezXoX3KO/N1ILjJo0xnK1km/E8VTUkiEfSwQnT0luxgCtAaKW6gC1hZ0TT+1B5BRwCU023cgE6au1TCCoJUID7VfyHOxddPgki+XZT/VrV3+X3PAA6BSBZN/MxLJepuWmOT71pu5PBr+NuceqN22zWbhRou++1gS01TKXhJQbNR7g7Q0mbn49aiydrLB+Y/lGjB6njNHK96NOy/cZJs7PB/h1Lb0qRZSwgMvqqx+6auEJgoE+g6b2rVR4dEx+/3GF9bqNvkuOlj9FGn2cL9AdrsZ1B4bZANFzwwHyHTd1jU0ieEhn/mvSxP9l1zhn3+EPJRdx6VSEXseYXyRwXc3wJA2w0TEzMXUHQ3IgV28ShRwWnA6cGPoolqYG6YV341UH2aDqwyCutTEBHHoTWpLZOxCsjqDdLF2xmyQii3/hai9yODk6xN2qA23rydT1NEqwIaykVSIwPSpAxlkLyHPpHESG1WjBs6atUlu7Y2m0yz0TVLUzN2svXHJUHuQKTVQPlOldqugr2YZbT/zpFVGWYdj4NMTaIaYAfwNs5E9xC+cAtNXY1u8eWbDsKaBo9QdgJ680yYDJa6zaMtPao/J8GpuXiNbvPIvntinTeQe73hs+jEH4A/HJKys5CRAqrzyatbQtsM1rmuNCJ8wRxftflKVez1Ypu0tsAW+0bZXZd4Pon7GdTHoIe0/QWuv1pivUFyfklpDJxYnFUuMtEr+eIY0FzdAzb0ONmBbPuBXAU6CQPIx1OAqPOZbJwNEhtqQJr2k0wMmgNixtmtwSKsm6vsGTSAPMdgcuN+ZBhY8XYpkKaBkOj1EA3R2t2HdoqGZ94wzv8eqJAvpS5OXGAKgCgDXoyVvgYyj4ofzEeqRdiE0Q0B0dERJXwK93uIWuMGk1CHR6XFBAy6TSyssWDnDRlzqbvoOQoBOc1GMO6+CeW6DZvzQ1LZh7cDXx/IniugGdhs7qrl4lAFaNbB0As0QZ+0P3TxqmC3w6tCYFK+FdEAQMJN2OUnXe0Az5B3KtFbSUZcRxQqkryCFNLMUT2nSFylr9oW5lgzhyvAHgW82hoMZHsBm3whXwVvEEBXqgvjgOfC136X7fInkNLpRGy7q5eeQ7b9Cgj6FLj+5SB+hBq9b88wGOVmRvYBrcIMgNRem1XldwnDmAezxjswD+DBmFlVMjjlq1pTHRbHfplE4rxjp9XSamWCJ0zxdO27fqItRsp3WHmKYtywKbTc4KOF3YZcIN1rQ66ifNbcLUX45SAq0bY3yFlwbm1QBdOj4JRW5rh1zCF91jaCDt0uVYZd3YWo5QPDeL+lewfkpXNhGHAeeRSm7DOIzQ7dsdh4c1s1TNVyq9WBK+9CyN4cx7lPTa4xvg2pp51RgCeaKz5NqVktm/IpNuVWQOcHPNGQJ64+fnVWl7BZ25Aa7v0wFy1892VtD3VxcGaMABbh4I3t7e5crzdbYcoM0NsDjAH+mSZAN6v1sXN38O10e0u2mxR8PY3Vc9yFOkRaoyVrdNwLHHkAHxiLYV0C3YJWKGSsbQJwZfQWbNg2NhrfOp9CYBd2/2dmQEnc+XGwC+VGCUwK1S+WQStAT6DCJ+Opx0piuNu//tBgJMsP0R8EFj7hs4KB9NXwMsLEuPYKnA0eovyk4QwbpgiPDVICYf4+yQ1dFsaXcgNKAHfng5N+hDABf1RABsgQ66Ajxn4VNxi1bVJZObB1xGt7S1jwGcfY6AzqoTvhofPUGBT4camd5WrQU8DOAyqKWAHwu49DcBvJAwrvGNAppCGB4OcA5qCTc/FeDsbwfog903ZfvhIQGXQc5i7fYl8eOnfxfSjo0HAQOwKWcW9+31z2QfGnAZ8CTAqydjyi2++7T7X/GTNKHjbOATln3c99x96w6k0k8BOBUw2M17QGtl/uvT9/VfP/z4FWW9jlopqwbQR93G1OmnAVwUl23tCaChtMY5P2GpJ7YLECtpH7Q8ZhWSt3GN+DSXVeu2ng5wGXwQeLhR83PkwLne8KFeXhNFjo67gAdtL0+gZU+VflrAqcCYm28ptwNonz4BvCatkVnEqnWjTw24KCJo7azsCbTIkzgCfI36xYGWPr0AF00gdhaPdMp1K5bOpAWddO/4vmKdrpi5V/g/kRi+BOJk7bcAAAAASUVORK5CYII=;" vertex="1" parent="XqRsU5LYybaEt040qR8E-45">
          <mxGeometry x="9" y="7" width="73.87" height="56" as="geometry" />
        </mxCell>
        <mxCell id="XqRsU5LYybaEt040qR8E-32" value="Large Language&#xa;Model" style="text;align=center;verticalAlign=middle;resizable=0;points=[];autosize=1;strokeColor=none;fillColor=none;fontColor=#FFFFFF;fontSize=12;" vertex="1" parent="XqRsU5LYybaEt040qR8E-45">
          <mxGeometry x="-3" y="65" width="105" height="41" as="geometry" />
        </mxCell>
        <mxCell id="XqRsU5LYybaEt040qR8E-47" value="" style="group" vertex="1" connectable="0" parent="XqRsU5LYybaEt040qR8E-25">
          <mxGeometry x="79" y="47.999999999999986" width="121" height="58.110000000000014" as="geometry" />
        </mxCell>
        <mxCell id="XqRsU5LYybaEt040qR8E-38" value="" style="shape=image;verticalLabelPosition=bottom;labelBackgroundColor=default;verticalAlign=top;aspect=fixed;imageAspect=0;image=data:image/png,iVBORw0KGgoAAAANSUhEUgAAANIAAACcCAYAAAAKy/VeAAAAAXNSR0IArs4c6QAAAIRlWElmTU0AKgAAAAgABQESAAMAAAABAAEAAAEaAAUAAAABAAAASgEbAAUAAAABAAAAUgEoAAMAAAABAAIAAIdpAAQAAAABAAAAWgAAAAAAAACQAAAAAQAAAJAAAAABAAOgAQADAAAAAQABAACgAgAEAAAAAQAAANKgAwAEAAAAAQAAAJwAAAAAYY3zLwAAAAlwSFlzAAAWJQAAFiUBSVIk8AAAEZlJREFUeAHtXV2MHWUZnm/mnD3b7dJWKiIELQKJ4opR9IYbrFwZvTAafmLiz503olAURUUoyo9NQRAUBaMXxgsTJNEYEm80FSSSGEyIFBCwVGxD+GkX2t22Z/fMjM/zfjO7Z7fdObM9c7a7Z563fc/3877fOzPPfM+ZOWfnPV8QSISAEBACQkAICAEhIASEgBAQAkJACAgBISAEhIAQEAJCQAgIASEgBISAEBACQmAgCLiBRF0jQdM0DbGro9B0jezycneT53fGOddZ7kD5Lw+BWhIJBOJxj0MnoJdCZ6DDKHyjeBb6OMh0aBgPcLUcU2O17MgK78f7sL2boVet8HZP1eZuw5vH3SDTgVO1A8O+3doRCRPqPTip34WSRAehf4O+CuW79zBJgoP5EnQEyuN1OPYfiUxAQtI/AphMl0OnoS9AP8WIKMNh0+y4JnFc3XIHGpv7R1ERao8AJtL12cz6w7CDgeM8mB3rfSjfyOo7UIpMFZ/8YbudKYQHE4hfMpyWOb1S6Dxcxh/jcG6CvgX9JvQGkQkoVCh1+4xEIlEp/AxRF0nw2eh+kIefl7ZDvwHlZ6Yfov8N1CV9IlA3IvUJ15odnt95/CQ7An5j+XUoPxveLjL1f15FpP4xXDMRQJgOiHN/tsMk0zYor0y3iUz9nUYRqT/81txoEGYGxPl5tuP83HQt6zmZUMLFpZldRUkERKSSQA2TG4hyDIR5MDumnEy8Mt0KG7/dE5mWecJFpGUCNizuYMoREOYXOB5++UIyXQNFl27zgMOyRURaNmTDMSC76vAP0yQTJb8ykUz6AsJjUvpVRCoN1XA54opEwvAWbgplfmX6Ho6SX0DQRjLp2bySp11EKgnUMLotIhM/M/E2j2S6DpqATHfAh88jSnogICL1AGjYzYvI1P1tHv9oG4NMO+AzOew49Ht8IlK/CA7BeJKJh4GSn5l+xiqUV6ZvQXll2ikyAYkCyf/iXeAiU50QAGGO4Hh/Cr0VOgX9NvQ6kGkTSskSCIhISwBT526Q6SiO/17oD6DT0Buh14JMG1FKToCAiHQCUNRlt3lt4HA39PtQXqX4SNE1INMGlJJFCIhIiwBRcx4BXJlm0boLSjLxKnUL9KsiE1BYJCLSIkDUXIgAyBSjZyeUZDoG5Wenr4BMeV4XmhIRSXOgJwIgUwKnHVCSibd8t0NFJoCQi4iUI6GyEAGQiY9B3AEnkok/X8b61boyAQWIiORx0GtJBEAmXo1yMrEuMgEE/UG25ASS2wIESCAK/2jLOjNt7wXJDrOzjiIi1fGs93nMvM2D8NaOQjLxCwh2kky1/EVXEYlTQbJsBEAYPjrELyAo/IMt/3jLK9M9dSSTiMRpMPzCr7ArFxCGvwHBKxN/pJ9k4t+ZeGXizyPX6sokIuHM10AuwOTmg6jNARwrSfQn6Aehl0NJKJLpPpCpNvlMIhLO+hALl6yhPADlH1NJpqqFMfl1+DuhI1nw76B8GfqrrD30hYg03KeYV4oPQddlOqijzcm0Fxvgs3inQ8+F1kZEpOE+1bzNejt0pf5eyLQLXo0+A+XtXYjbOz4VMfQiIg3xKcYkfmalDw/k2bfS21wN21upd6rVcKzah5VBoJZvzrU86JOfT/jma/stbvsJAzBdp5fcMudwM9J78lY+cr6d1/z3ybl9fvDNfO4tnWurcsoREJFKnoLzb3jusrDz9CUjU5e3/oiFLEYSKMY2XJiOsh08Ze1mmrgRawdBCzbWrQ+fFJrhJzAOn/xdkD6Y/t1tyfx+hzj0/Wjacfya7bFgazCaBrZ0xBW4Z3gRY3wc2J1rjlz7591w+w1UskoQEJFKnoikE386ctHXopFxfHKP+Sf8IMLYRpoEkeNDiynqqf2hZgT1eQVJ2IbN9/l2i218Dvf9JErq/RDTbBajyzdrr2+OBoenXv8r3ESkkuduJdxEpJIoOxc+GiSJS9uHRuM0AX3wW1XQEFeVWVw1SKQOOh2uVC6E0oZ2gn5Kgn/057iULRCpA6dZROJfNGP0sWRK6gw8WiipMxgwi0D8S2oTsdsz0yMjLnwSTckqQkBEKnky9uy88GG4UleF8EkFfU5aFafCdkLf2q2ec7GsPRGJlgXXwJ1FpIFDrA3UAQERqQ5nWcc4cAREpIFDrA3UAQERqQ5nWcc4cAREpIFDrA3UAQERqQ5nWcc4cAREpIFDrA3UAQERqQ5nWcc4cAREpIFDrA3UAQERqQ5nWcc4cAREpIFDrA3UAQERqQ5nWcc4cAT09HdJiLdc/8zFjSS5qOmQRoSkO0tryMayztykJvOUsjpLJv4xzcLb/C+QzPv6Mcxtoj2M46AZRUGEXIs5HxjYT7HtoR3FPqXCxqA/L82exWIf24u3HSUhkgu5P34/8+1wX5u2n7Bn+xsiQbHpwtlG4F4Yu+eyx+EiKUBARCoAp9uEyfZJJBl9GRzaEGHxLaQTBchOcsxDyoW5Rkz44w/ocHLCl2lJRi42kRjLX9ZhFa9cJ4VVKCQMQxr5ULfvgTVBjRnlJIY5cgNkMQrblsU0wth2kK6EbTGyY8aUm9s4d8SixjRY0HzTzI3ivlJSjOFOMocKexPCdhQ0/j1MIpIhtPSLiLQ0NgssmFf7MQufwFRfh3mGAvPR0vcwqS1LNkTLZqtNfnvhnKYzur2Fk5hhjS1+ovsZbt2kCIYYCZh1y+xBbsN1TXbbqTyMj0xPi+sDZh6epiCEWUFRUMR70gG7hB6y0aJniYhokWf4DS3a8Z7gZlF9mV6SYgREpGJ85qxR0ngkbcSPhTNhGGPRugbyV3nT1bAF7EiNGHUvMSYjr1Scp85usNhmFizH+cxajiWnePvn4+T9yI6lIZ3BFc9IYJmzvCoxg9ZK/K4pryJzbcSNsD9ss99n2IZz9rjVnvOn3cJzPBp5XPZTseuWpWt+nWbanj3GX2iV9EAgP/c93GT+z50XvAYUqBIhcBwCfOORCAEh0CcCIlKfAGq4ECACIpLmgRCoAAERqQIQFUIIiEiaA0KgAgREpApAVAghICJpDgiBChAQkSoAUSGEgIikOSAEKkBARKoARIUQAiKS5oAQqAABEakCEBVCCOih1ZJz4CMPpM3JJ58cWx8dDQ+3xtNNGEftlk57ig9WB43MntvGrH9jMNI6LX29fdidgZJj26jnPizPRD/LY1n/mS0+R862j7sR9XWIzT6OfxN6NLNdmPWzj7ZcpmHnOMp4q7NgbO7ny03Bofb+BftzWnwkedvZZ0y77R/ng+WSAgREpAJwuk0Hnn92W2Pjui/OpKMbxpC2wxSJt6ARMncIoq3a19iANrJNkWPURskUBaZTtMfGsZpfnM64SbcZ2UzOHXTTHLPOpRHsNh5JE9Np2zJbG6M+2W4qGx+NNhDLpbMYmgTHUE+DNzge5fhoiNhB+qqbdijpF0xh+z5mGoyNIl3P4gSOyRZcYXAS47hvRy1GEBzgPiSTQdRcZ/22T8hfioLR9vSBziNw2waVFCAgIhWA020KXXA65unZyObZgKwdS4nz2Tvoxfu4vZWjSkFyHjqYoocOmtFkyp6XOSc0mVDnLfYKvyyxLsu0zYYwHlPt2GRolmxYJh/6mRzI/yzZze2acIyvz/f4WDTzIPJ7e46lj49tOYDcNb4fnEVfSTECIlIxPvPWKL0fa1o+lCYJLj420YJk1uEdfDZw+PEDTsAE61bynd7q6Ethp/h5jrsjm81Ny1rFgplzvn6SZzHh73nA9qwl/XGykzMsOfltwqPNbRlp4Rm6jg+PV6awc8v05RUqr/s24uC6lmJ32E9lXIuJkkI/HmWE9TnhybtFSQ8ERKQeAOXmPTsmXkadKhECxyHANyOJEBACfSIgIvUJoIYLASIgImkeCIEKEBCRKgBRIYSAiKQ5IAQqQEBEqgBEhRACIpLmgBCoAAERqQIQFUIIiEiaA0KgAgREpApAVAghICJpDgiBChAQkSoAUSGEgB5aLTsHrkijiYlnovaB/7rW5i3+ge2use/vqpepTpRxynxORewXcZwX2HG+liixr/fJEpF6Y2Qe57979+ePHg6uarTOXZ9MxSmB84l7/jmr/UgkGsH1nZf4rmQ9S7BjXwN2jmkgsYnJfvugDeQr2PKUWM2LfWZHXgTrjG3jUN/LcdAICQ4sfb9PGmQiIX2hTBLE2CDYAz/2NZFR4W1YJg35Eg3kZ/g4HOt9/p1tN4uBfu+zOWy5QwdfaWPRsUcR6laopAAB4iopgQByfC7E6neXYonK9VwFj1lvnNBMorMSL3lOj7XR4iJjPt8Hdcxk5iWxTUFKUJZjFFkSHyasjwMn+tCXcfJYNsZamZ0+pr6d+5IQtl0mNdEBJZbCtG0wM4ldPmaIkoTNbTgO84MPNk7iIRsJGVYpk3ElPRAQkXoAlJuxbuxv4yR+FNl6ocMSe5yQFJYO6XdMhstX3iOhlpJOBwshc7ZjPT3OdSz0Z8JLB683YUwaxJjiVJ9kx4l/onoCH79978c6f1yBJ9X6Mcj2C1l8uR83xzqFfoxL5RGQvBRe5TgOlqSZuFesqpdCBESkQnjmjS/s3f2vrRNnPB0EW9G5a96wqM2JSsXqlMfJVvTsgrIsI0vF+liZwYt8SDBqLlvzylxp7J5r+Qr6dr+e0WuRSc0FCIhIC+AoaDx0ZbzroQJ7CdOuzCcvSwyRyxpBgHcNEiEgBPpEQETqE0ANFwJEQETSPBACFSAgIlUAokIIARFJc0AIVICAiFQBiAohBEQkzQEhUAECIlIFICqEEBCRNAeEQAUIiEgVgKgQQkBE0hwQAhUgoGftSoJ4BRL7/jGxt9l5q+HeVTjmf2Y9p9DHG5fyKY4/H3ip8fQosuURem9nX3DOxiB226880TO4eRiVQEBEKjkNnjrv+Q9E050Pj0ZB6xAS5ngpxxJIpgzRxDPffH46DMZRTwKutkd77udtPgnP98dYe8+3530SGzPJ/gTpFsi3oG+E2DYGuQ3WxoAQ9SNz45mkBx/4hxhHH64maGO6fGxsVz/3kfvl/fiseRYf+4/4rhWc3pl6M34J3X8xo16WREBEWhKahYbZZOYLYRpeHTRGWgEmq+XuILGH69xxMjLLh3k+zI51oJnl/+BlfvU8TypmuXJshFxW80FSEpfNZLIgU+0Ykf1IILS47PGLhcEPG+JY68MA84M/F8aMsE3LlkVyHveHJ5bJh77OEktkZm2OZ7Yst0t7yDqsuZ2xmsjsi+OZBBlSfOZdRAIIRSIiFaHTbUuDZzExHw467VF0YzqDQvZqDbRwifAGWvDPYRlLTFCsNssVYTl56WEpgOhnBqoRATESVHg9CLE+HtP5aMtHwYw4TODDxOYAdDCzlVVswcZ2EI/tjpnn96OJaswN54J0d8ajL/fDYuOVI3hVYpstK7HSbcO5GfD1CXRLeiAgIvUAKDe/dOdFv0SdKhECxyHQ/X51nFEdQkAIlENARCqHk7yEQCECIlIhPDIKgXIIiEjlcJKXEChEQEQqhEdGIVAOARGpHE7yEgKFCIhIhfDIKATKISAilcNJXkKgEAERqRAeGYVAOQREpHI4yUsIFCIgIhXCI6MQKIeAiFQOJ3kJgUIERKRCeGQUAuUQEJHK4SQvIVCIQJ2JxLQbSfUI1BLXWhEJS0Ayh81nvvlE0+qnkSIy6ZYSZ3j71pC/1opI2bnkTyJQzkpT++kF39JrVQicmQU6VFXAtRCnjhmyz+HE7IdeCr0eZPo1yvxdFFXJSSLAK/1noZdASaI90NoI0/drJSDOJhzwNuhN2YH/E+Vr0DpenTMI+i5IondAL84i7UR5F27tXs3aQ1/Ujkg8oyDTFhQ3Qj/HJlQkAggVyGHE4BX+bpCoVquh15JInDAgE4/9POh7oWPsgkpOHoERDH0MBNp38iE0UggIASEgBISAEBACQkAICAEhIASEgBAQAkJACAgBISAEhIAQEAJCQAgIASEgBISAEBACQkAICAEhIASEgBAQAkJACAgBISAEhIAQEAJCQAgIASEw/Aj8H7506N5wwv5vAAAAAElFTkSuQmCC;" vertex="1" parent="XqRsU5LYybaEt040qR8E-47">
          <mxGeometry width="78.23" height="58.11" as="geometry" />
        </mxCell>
        <mxCell id="XqRsU5LYybaEt040qR8E-40" value="Context" style="text;align=center;verticalAlign=middle;resizable=0;points=[];autosize=1;strokeColor=none;fillColor=none;fontColor=#FFFFFF;fontSize=12;" vertex="1" parent="XqRsU5LYybaEt040qR8E-47">
          <mxGeometry x="62" y="16.049999999999955" width="59" height="26" as="geometry" />
        </mxCell>
        <mxCell id="XqRsU5LYybaEt040qR8E-48" value="" style="group" vertex="1" connectable="0" parent="XqRsU5LYybaEt040qR8E-25">
          <mxGeometry x="681" y="52" width="72" height="79" as="geometry" />
        </mxCell>
        <mxCell id="XqRsU5LYybaEt040qR8E-41" value="" style="shape=image;verticalLabelPosition=bottom;labelBackgroundColor=default;verticalAlign=top;aspect=fixed;imageAspect=0;image=data:image/png,iVBORw0KGgoAAAANSUhEUgAAAJAAAABuCAYAAADI3prRAAAAAXNSR0IArs4c6QAAAIRlWElmTU0AKgAAAAgABQESAAMAAAABAAEAAAEaAAUAAAABAAAASgEbAAUAAAABAAAAUgEoAAMAAAABAAIAAIdpAAQAAAABAAAAWgAAAAAAAACQAAAAAQAAAJAAAAABAAOgAQADAAAAAQABAACgAgAEAAAAAQAAAJCgAwAEAAAAAQAAAG4AAAAA2gMFIQAAAAlwSFlzAAAWJQAAFiUBSVIk8AAAB51JREFUeAHtXVF24ygQlP32ArlN/gbfa2dNZvdeIn+5TW4w3uoYJEykjIxpCZTiPQ8tJIru6jJIRMkcuqRcLhfjm0KdXMHDDAbc4XBwGf2q73KIPYR4ehybuI12MQZeICJbDK0SoGPwA+KR4Ew4Zl2cgbPnuDjwloAfMxACM3BCZp9QHIzXcMD6YQbOAQGz0M2sH9qbruWbgU8otulgKnQexPaBXNSmQhezXRqWsGwEdlzCQDybmyUdWrmGAmolU5X6SQFVmphW3KKAWslUpX5SQJUmphW3KKBWMlWpnxRQpYlpxS0KqJVMVeonBVRpYlpxiwJqJVOV+kkBVZqYVtyigFrJVKV+UkCVJqYVt/7SdPT5/W9zxT/6uuvenn7Za1v+vxq4Gpj5EbbTU01Az+8/o7cbLwMjaMe7MYeXXCFp4GpgDgHv3AgvlFnEGV56eujVy+s3+SDiWVCWC0kDVwNzKmi8A2TRXoTfKfwt2xTugT6Jx8mMM37icC/ncemI26dsDVwNzCnf99tWdAl7fv/Hdt0lYutyenv6z0UNYtrbJeMg30wnJ+aKBq4G5pz/e24vPANdwjQNzibF88Hl29O/p4hU8+dZSANXAzOK6puYxQSUiMBNzDwJpbKshXI0wUprDVwNzNTv73JcTEBddzQjaYfX0Z6zfrvxzOXHaKfW0YwtpXA1MEcvv5NVUEBLBRHoXZpEDVwNzBDX96qLCShZsu68r4kTepsADVwNzFuvv89RMQF5ytxI3cfT1XgYWdcnoLEhSeh4YrTcaBbD1cAc3fwmVtHHeDx5yX6P8dxhFvqJZ/pwsyyzzNHgGtzvxL9cF853XxQNXA3ML0LY6amDxFVyp9Tvr0SP818xd89O9MceU1FcLV/TiEvym2JvfVx6CfM/LL2cEJj7Ijick32i5T9YvV5bFlcD84uYd3mq8BJ25cjf07jrfsvRXFtl6ZLH8N8L9oiuPdJ/NXA1MFO/93ysIqBAWEhOOC5Va+BqYN4br1/q7u221vWTfyRLVUBrRbaHcSAegzgW3uNtEvEZPsrAN29rFL8H2iQ0DromAyIkGwbkDBSYqKPGNki1BfewnfHeiYg+ljQKqJJ84Q+XObgin2oLRNPDORM7yCUsZoP2nxjAU/RQjFgU0MAHjRwGKKAc1thnYIACGqigkcMABZTDGvsMDFBAAxU0chiggHJYY5+BgSAgN7R0nWwYsZRl4BzBuchu3pzaSDTYMLogsjUCfcUGml2LRYRlMJZ8NvuS+A1DuLCzAnLj/+5ANLRmsdp0Ipgt4wtcqsepyWPC4UcsYQnr/Eyw1c9iznDOaAUvgQM7Xka0hprDdThxWnO2nXOkdPvNEuYDtDKIZkKjICSpxh9L7bxdrJoQj4yx6hcFvMqYuyw3AoojXCNoJFeGNH7c4vclU+JBXCc/HqsCDAxLWAGsqiAgnh4OyQwXygvFE6goV+9OQBCOPEWKeExEk4jHRsc0CzEwu4QVwl8VRsSDAUU8caF4YjYK27uZgSiewspYCLeLGQjisYg3vt+R8E9YtpwYLHoMND8DUTx64liC3PQMNCEeedGbj+lLMl/ommZnIIqnkAIehGlSQBCPPGnF9zzypMWZ50Ex5HRvSkAQDvd4crKs2KeZeyARD3jgHo+iGHKgm5iBKJ6c1K7Tp/oZCOKxoCK+3xFmTrjncWKwbMtA1TMQxbOtOJaMXu0MNCEe7vEsyejK11Q5A1E8K6vggeGqExDEc9cej4hN+viPeYALds1goKolTESAGEwUh2wQ2uh4zjT+xCtq521WKzCwqYDkSQqiCWGaYPh6qXiSbjxck4EalrCXiYApnglSamzadAYSQmSJimahH2gS8Tg5x1I/A5sLSCgSEdVPFT2cYqCGJWzKL7Y1wgAF1EiianWTAqo1M434RQE1kqha3aSAas1MI35RQI0kqlY3KaBaM9OIXxRQI4mq1c09CMhF5MpONsuKDFSxE10wXvmtDVsQbymUvOzmll5c+jrEbEpjTuDJGOeo3UV22yYI7PGpodg1mUTA/UZBrxrnKpyCSPmhbA1lFXIRaL9RsH2c0EN80LoNQg1ikM/aJZ7aZWx5o8BqOYE4BTse02mNleBKXGuNlQy980MktccnLlYrZAwSz7Zq42j5T9wZBpLEiphUkgvcXsB9MTPusLlFBpDUeHaQHN/cM5SISTAF2BdTApMYFTGAxKqKCPi9F49UFFBFuS/mChKbiqhYsgHUC5gvFFCxrFUGhASriAi4vRePVBRQZXkv6o4kOEp2MO0jgwCkD0CozSNY7NsAA5LkKOHBtLmuA6APIKhNLg77NcZAknjRgM0JIcExORjs0ygDSfKzRJRgUECNaiHbbQggvbm294BRQPewtdNrJ0S0eMORAtqpKO4NK1dEFNC9TO/4+gkRoenrJysKaMeCyAntXhFRQDks77zPjIjsVNgU0BQrbOsgjEUbjhQQxTLLwBIRUUCz9PFEYCARCQ7HXevknAl9WJOBGwYSoQwiStrNTScekIGYAYjl0661KCkqJr6eNhn4xADEkopo0M+ni9lABqYYmBGRnbp2zbZd/V7YmsRtMZaIyI/7A3UVv6P1P1XWq7lsWIJnAAAAAElFTkSuQmCC;" vertex="1" parent="XqRsU5LYybaEt040qR8E-48">
          <mxGeometry width="69.38" height="53" as="geometry" />
        </mxCell>
        <mxCell id="XqRsU5LYybaEt040qR8E-42" value="Response" style="text;align=center;verticalAlign=middle;resizable=0;points=[];autosize=1;strokeColor=none;fillColor=none;fontColor=#FFFFFF;fontSize=12;" vertex="1" parent="XqRsU5LYybaEt040qR8E-48">
          <mxGeometry y="53" width="72" height="26" as="geometry" />
        </mxCell>
        <mxCell id="XqRsU5LYybaEt040qR8E-49" style="edgeStyle=orthogonalEdgeStyle;rounded=0;orthogonalLoop=1;jettySize=auto;html=1;strokeColor=#FFFFFF;startArrow=classic;startFill=1;endArrow=classic;endFill=1;" edge="1" parent="XqRsU5LYybaEt040qR8E-25" source="XqRsU5LYybaEt040qR8E-35" target="XqRsU5LYybaEt040qR8E-15">
          <mxGeometry relative="1" as="geometry" />
        </mxCell>
        <mxCell id="XqRsU5LYybaEt040qR8E-50" style="edgeStyle=orthogonalEdgeStyle;rounded=0;orthogonalLoop=1;jettySize=auto;html=1;strokeColor=#FFFFFF;startArrow=classic;startFill=1;endArrow=classic;endFill=1;" edge="1" parent="XqRsU5LYybaEt040qR8E-25" source="XqRsU5LYybaEt040qR8E-15" target="XqRsU5LYybaEt040qR8E-41">
          <mxGeometry relative="1" as="geometry" />
        </mxCell>
        <mxCell id="XqRsU5LYybaEt040qR8E-59" value="" style="group" vertex="1" connectable="0" parent="XqRsU5LYybaEt040qR8E-25">
          <mxGeometry x="97" y="326.38" width="85" height="107.75" as="geometry" />
        </mxCell>
        <mxCell id="XqRsU5LYybaEt040qR8E-53" value="" style="shape=image;verticalLabelPosition=bottom;labelBackgroundColor=default;verticalAlign=top;aspect=fixed;imageAspect=0;image=data:image/png,iVBORw0KGgoAAAANSUhEUgAAANIAAADSCAYAAAA/mZ5CAAAAAXNSR0IArs4c6QAAAIRlWElmTU0AKgAAAAgABQESAAMAAAABAAEAAAEaAAUAAAABAAAASgEbAAUAAAABAAAAUgEoAAMAAAABAAIAAIdpAAQAAAABAAAAWgAAAAAAAACQAAAAAQAAAJAAAAABAAOgAQADAAAAAQABAACgAgAEAAAAAQAAANKgAwAEAAAAAQAAANIAAAAAhk4VBwAAAAlwSFlzAAAWJQAAFiUBSVIk8AAAI2ZJREFUeAHtnQmcHFWdx6uqe65MJncIhARCuAkgyqEQECIoeCwebBBw13PBFUVAUNDdlRFBVwEvPPBgRURBI6gcigIJiCAiGBASCIckJATIQY7JnN1dtd9fT1XouXu6p+//fz6/eXW+evV771fvfu04ZsaAMWAMGAPGgDFgDBgDxoAxYAwYA8aAMWAMGAPGgDFgDBgDxoAxYAwYA8aAMWAMGAPGgDFgDBgDxoAxYAwYA8aAMWAMGAPGgDFgDBgDxoAxYAwYA8aAMWAMGAPGgDFgDBgDxoAxYAwYA8aAMWAMGAPGgDFgDJSAAXdMnrnwl7Fj5k0f0q+7Wxckx+Q55okxUKYMDJn4sw3v3AuenViX6jrY9/1xjucEjhPj1tT22wPH9zq2Ju5a+4NDOrYftA1joMoYyE9IQeDuccHy02INk65LdW91nMCHHnkpoClteTEO+xd1NLdfvrbVxJQmxf5VHQPxfN5o3seXN6ea/Z3cZLfj+qmXAtd5Igh8ZUmY53ius0vgp+a4TjBh2rZZ7treE/bfGKg6Brx838j1Xc9L9TixwLl9xWX7v6luvPfmlj33P65nw7rjyYuujQdB4JFzpTo25pf75RtQu98YKCADeeVIClfc8SnIBfpTuc5Z1jqvR64TBMkDzn8s5bpkUG4QOOOm9Zb10iftnzFQXQzklSNNh4s6EEdGAxT5BceN0/Cg9odY4FqOVF3pxt6mHwN5CWk9nnmuG1Csc+Ju8GpTnR7S6lJZSiYlsrDS1O/RtmsMVA8DAzKS0bza9B0cp6Mt6cbi9Y6fTO5z2PlLT/PcWL38CFI+GnMPoYrkumRL09MteaPx3a41BiqHgbyE1L1lSyoWb+luqG9xuhPdRyKi/cmAVGUiq0I9QTA+Vt/s+D0djQ6iMzMGqpWBvFvSjjr/sQPpJzrP89wWhBNzKOqhIFcuevLZc13f/157e3LJwz84JFF0IlsD760bn6Eq93S/R+/pjH9paXLRopNVJH2146vfVbZrDGTDQN5COqZ1SdzfOm0nJ5Zs9GL1A1rm/FSPm0h2rvnL14/ozCZAY3nNMec9+h/4907QqKZDdL3de5RO/dB9CQJ+sPiKA/+0/YRtGAM5MJBX0U7PC8fRrc7h2QW9pdVp9e51/OPrmia/w6fDmI5hnodspCd1FsfqnFTXtg7KoY9xwIRU0Niofs/zFlK5UrRs4cJ4zEk0aNSFk+j6CRK61ac3ixaQFGKa6ic738326zneUK7vYOGqHAaqVkjLnWXOLs6eNM2nyH/8Jbdd8dpfRdGy8Mwl47eNm7Ibdbn5NIwMKI5G15lrDGTLQF79SNk+pBTXzZ88l5aPQOMq1NdFHelVa2/eYbwX+PXq46rLqDe9eoVtGQOjY6BqhSQa4rQt9Aqpb2dxQ9xLxMLRtVVNwOjSgl2dBwNVW7QTJ3HPDciNGJkeTHvfWQ9M6Ik3tsT9WLKnu3smhydyiT+YkN561tMN4+OdezEyo6F/ez1+up4b7052eP9c9N152/Lg3m6tIgbKVkinfObvM/1UcEDMjSdocaNNoJ/Fgp5UsvuhRUM0q2/a1OR6LT2xegZa9CS6TkzWN8ymi7je95IMXQpa8PAwJh1SP2LCVIa1trZ6T27bdjjdX59lGO4U7onRxpe+Qo3nHPdTtFS4Tf4l7P4h41bbrGEGBvsgl5yOc8+9v4li2Sl1sYbbabe+ndzjTpqp7+x1nTsQwe+dlHtTPNZ4UCsdroMFeN68RUmuW5Xq3LoZpeyPID4M/g28n2kd7/IcdwbHV3lB32lSy/a7yHX81AlxL/YW/N0Pz6eSsU1hbtVk7p0Uc1LzmpunHBl3vDcuPHPZ+MGebcdqj4GyzJE2u/Fpru/sFyMvoPdnE0MkXiRqSPfpBjaV1ma7uibwX7t27cMPce7VntYwDslZ/FPP/pfve16wjEMTuXP7Na76kfAvlfLW1Se6fx3e0ussYkT7Ll53kEr49W5wC7nhNQwm7GTcoJdMuO2E6EK/u42mc7++bsIrGvxuZgwMnP1QDpykVAKjYuMmurpjrnPVT7722i8sPHP5uC3jksFUJ9HUEHhXBU7yJJSVnDnz4KGar93rv3nwP3gfYVSmrwuFPvTqrmxfc+gdixbR9xTaB8/7+wqHiYzkak68a/xQz44uN7dGGCjLHEncxymX0bBGNSZGhd71F33XSVfsW1uXJVZv7enkpFK6Q47E/0Et50QeY5igq+GCXhCbNWuNRrNvH95ELkh7AwVDDub8gEGDawcrmYGyFNI4GPWp6ZOUUUvfOtBKZ51X50zglAb6FCYxayIiFSUNuw02TXymj17qNCgX07P7t+jpuFltMlCWQmKWExUiZQRB+O1X5JBFoKrJWxrcTomL5Kzkvr3MNYbxF/d92jLw0HfrWzZObDmj9SEvvq7N++53F2zjwfVpFXM6HyFpnlYYZGky2pYroUbHtB0dSws4PB9tsyvF94pbO2alYaBMhaQl8pJKQXG0M+NTZz44u7vx0aZYcikJKNXIbNxJARM04rQkTJ55UGaiGhMWSZhqIieBOh8JGoKFdVtoqGic4H7i3IdU2myqa6h3Usmu1CR/87DPC8UiIWQiumfX8Pgs3ClgEqDal/427IirFkE1kOheBgw6m4CKmFpsUw9WUVfbq3gOa6E5W4BMfEScpBtYTGhpXgr6ryyF1ESO5Lt1yXi8KZ5IdJ2TanTPjev7T2hTJBEP9H6EtzfEjRlJ8+Y5wStbnOdJiyrgjWeuFQmaGhPLJcnlQW69F3e6U8HLX//GMVu+MciTSdgSxDSwOzgAzAa7ggPBBDAHjKUpXBLaKiBBqYFlNXgU0OoZPM67dLFtViAG9LUrO2tljtPmzc3vZaGvy6ir9KoGBTGkIF3AI41LSqtSqfoPf+MbBz411l/chSzBPHv2XrunUokB/KTirlsfNLSvXu29vGhR74pJBEfiOBwcBg4OXa0NI1MxTehvatKXKcFLBMplVFLVteuAchw9XyLRCPXJQGMG9fHTdnO4vRtu9Cw2t5vu05dGrvx6EkhgfwVL4Ow5XLMxYmBAQhkjf/P2ho7W+Lp1d/cZbJrpaTLZ4s+ceWuX+osyj4/d9vY6TIaXr9ZFEM/RnHg7OArsA9RGokSeKZpH2Fc/lsSyCmjuk4ph2o7CHSV2JfjItJ25r3jKjKvMfT0vBiaBXYFErZxvFzAPvAa0gMhUtdMzFSaJ6g5Ap7f7Mq5ZjgxkRk6OXtTObYjneN72neA4sDNQTqFELJNgHgRLwf3gOSAxqB6jnEZQIlaRMVMkHBobI3wKi+JUHcUSmFwdk5D2Am8AR4JDgYQn0zqE64GKgX8EvyJ8L+CajYIBE9IIZJE4d+eSD4FjwR5AdR+ZEt894DYgAW0ESpRqGNBIiIKIBb9zMt5DuaVy+CYgce0J9GHQe70ORP1lei99CK4Ej/Ae9uMHEGGWIwMkvL3AleBp0ANk68GPwDvAnmAHMGTxM8dHF+U2wq1usolgJjgAfAL8DUS2mo3fgpOBiq1mxsDoGCDhXAr4QYAgBWS3g4VACW4G0Be9qox3Ggd2AwvAt8EGIHsB3AhUFzQzBkZmgMTyBvAH0A5kt4F/BXuAmikG867KaY8EXwWdQPYkOBvYiPeRk1LtXkECeT94HMjWgDPA3rXLCK0iQTAVnACuBbJ14Hqg5nczY+BVBkgUjUAiknhkt4A3gaorvr361qPbgos54OPAB7LrQPPofLGrS8xAYYtUJIj9wVoguwHsV+IXLsvHw0sdOB1sBLIvAbUAmsGAmkRLYj/+4JLGrVOaDmeswq4agKM2JAWEj552OEz/S8x/6pNfcx8YKYDyq21y45vpQZmavpcum6i3U/fGtBqk6z62Yfzv/5rZgUtCmMjpU8BOQB2T/0Vz77O4Zv0YgBf1gf0QztR3djk4D9zK/l/KramfcBXdSiak9gkN81kO67Oo5xDkE2f8XNjxotVFnCSy6nEC73cwMqKQOifE5zFD6POocC5+NWgwkUa7smQdisQvP2B6U/DznTa/Y6XjtL6YwbL6hc4Em8BXTUQZzAy9+R1OvQ28FbwdLAca3lTTljmcpahEMHnuIMRzCDNNWcTR1ey8xezfQ4DuZB2FFY3x+qlUUuZde/6jI5bFA8/bLeb6e3NvA9McHuL3mhajSvl1F/4+g6ia8Ht3L0hO7/eSGp2givNqRHRnv3O2OwgDYe5zM6fU8fwaYH1MkFCyHCnmeurkZFxqcB8iuNRJND7dHe+qbwya2pNe54lBovsaspFkY6o9s5RGkAdaPOYmWePBJ0d6Ag8vTMZS/6R0Vxd0pTpiDfGTGLl9Mfkcs21T2/3i2fqIqJgi29Lr2P8sGVjHdRrypCFIZjBQOiGJfmbIUafZzLJaz59+5RHroxj50Tn3baRew6xuZqh2bBix/4b155hawSwl190aD/zVp18+XxGdtqs/9cAmptvSYhGwXEl0NO2qThYJayeEtRtf2+f6XGE7QzGgsXpiM+JvqOtq5ri+yiUxVrjnt2X5SXQ/8FhWq4+g45T2mFjHUsOBO7l55Il7Mb6NLJLCVyHAO7fPV5IVVfGrdwRnXx31ee1Z7F2AmDJHSfe5wHZ6GYAj1Y8+ABRn+hiZwUCfBFxMRpT4000BrG8Vjzf0/hJ6GIC4G0uo5UFZ0qaOl0fMkVQ+I9PhP5lOkiV+MswLUqxvp6zPHe5lNV7uo0DDYa7i2u25Y4ZXNb0JL/oeab7VVUCtnDITUi8Pw6Wt8IoCOXFVaRyWuQr8qV531wG/Ou/+CSyVUOcngw6qO3vE+OlM/aTRzCyfL7XR0DDBi3kH3HDOPRM9ty7ux4OOIBHMJbYbeI6T7GJm4ODWxWHhYjCLRHMF7vMISsdq3uBjBiRowuKPgESkD40abobik1O1ZSXLkShTJkncHU31zSewvNUJavNOf+AaaWHwdSrldKWSyQ09bSOWw+sCN0k/VE99vPGwulgdk9RCv8iFUi5rPxDdHd3tnV7DgPVKooSgCXc/BRLSGeBUcA4J6I+4G2pRULy7uJkCNN3iY+D9QFMq7gc3gS+CiD82a9tKJiSaqJcRVSu6e9obiA2aUlWWU7yk2wVUskuyLPA/PnTNghFzBaagP0fl6MlUqmv3ZDK8PBxkSvERXwMW+HYfeamze80Q0d3GVZoy8SznLwH7gKvBk+CyUFCa2ap5RuqYrEoLxaOSsuqKu4OzwGlAthF8C3wZnAhUrDMhQUJNmxIN0Mhu2ZKIDLY1neDT4FEQjXzeyvZN4D0gPQcJtx5UfELiHWjboRO7d27SvrifBCtBZJvZ+AV4XQZH4q0DaHpJtqXv6HZzq4kBEsCgQorekfNqEj8JPAy6QGRb2LgLnA8OBBKeEqOg/uWyFZfCBmjITI+bk7sz0DteBTSBkREladM8LAlII73V6drHOGZC6sNICVvt+oWj7HYpwr1IoG4USDj6Gr8PHAf2Bm8KcRmu+qyWAtWzhEe4/mnuV26WFhXbKgYV1aJn66F6PrYDm/uBI4AaDg4Cu4DM4r2GSt0B9N6/4b4eXLMsGMgkMYvLa/YSCeVREpa+1EqAR4OjwAKgBHp8CDWMSDT6skuIEtbzbK/GXaVtoFEUW/BrDe6YGP634JEWM9k1xETc2UBCUa6pdSY0FEp9bBJ3WuC4qlA+DP4EJKD7QLqSSfj0LmZZMlARQtLg0z+cc++OcX6lov97xRKe29CQ3HLEED841v/6XPZJVBJHKrz3H7jLwPeBjqtV6w3gALAXUCVdx+aEwEmPAND9Cr9A2k7/HKfHtsSlc1p7ToM/k2AokxAkiGageyUeiSgSh44pTrWv7UgwbKb9fwT3OfB38DewArwC0u+nDwXbZjkwUPZCuuOMOybe23TvGY2B2+p4Pd1EOYmDeKe4r/elZuL0BE7j4rMXv9ud7N61oHXBcAkxB4r63hJ+qSWGdOsdgpCongLiMgaUgDUdezewS4jZuIL2JwDlGFOAbN9eJ6//eud0ToerXHAreD50FT6JR30/tI6mhazrEyYcWBgjK3shtTS1NCbdnr0aYvFx3ckeWrGdHn1mGYHK95bRCl68pb6ugX6itunbNnYqIRdUSP15D3Mr1SUy6xNqkFDR7kEgjjMhoQk6po/BLKBwS3zKYaLjbPYxvbaeoVxL/TkSs7bbgPzRvqBr5IqH9D5hLConPLfmTJFW1ubV03WTcOMsH9zDL+h9NRWru5qkkg53T6wnxVCI/wtS7gKNs1N5qlwszLn6C2xA8BDcmvCgxCVBSTBDmQSj4pcEkm5EkGtWegbKXkiiKJ26GHfHh3fd/Cvmr8qk7YGz727zGFvE6AglsoqzMEdTuCUQoRJMYlfaGUn4lfAuYxLGihASuQ2FOMYnMPO1/1tzIP2z5OlPdP+Ttl8oBlQ/fAY8BzKLtIV6Xtn7WxFCknpQkgo9A8r6NGPpt4zKnugqC+B9vM8HgOpoQs1b2QupuZ3yjkLJ77nSTrfb459a/BrGtKbD3RCvS3anks0qX5gVjwGKo2oBFMxCBspGSOQpynQGZC1+XYpxN7FEMz861pHoOJVuwjcSkZTxyJ6YehRz3b0m1DU6W3ra6uJtTcq3zIyBojNQcCGtOPfuo5h1dxgKSS/s4/kqqPXWaBhAE+dHl1+IB7G73CsXrBns7afXTd+2KfnKfd2JdlYd8lhbzdmBnEmjxtwYrcjsr2vrbns25rn/mDPnHiuvD0aiHSs4AwUXEiMjP0xGc0p9rL6RBU8cVwtjpV8rcBLMOUqkEmtSTlLl7EGFNOPyAzvazrr3NjqM1vIzlPWszJDuko2YSdEOweylrfscvmGpe3KrtTlExJhbVAYKLiSGQ89GPo0Uw+4mwSMWCmfpQZQ+vw7uHNvgxWchBg17GdRorQv4pR6Vx/846AXRwW9GG+ZmwwD9VyoalL1Riq+Ij2PBhRRz/GSc9UiSTuI7nvvKbbPW0Fz6y4X+igtuHt/UNf7XLIF6LKP3K4Kssk91IwQQ8YzjksOBxgVqe0CdlGNlZYRZxfW/gQcQVdkW3QsuJGoxDsUxh18a8p6eMj0x++sLUuq7D1qXdL7Q5fv0EVHPKXlnasF5KJPUeQrhuBTsWCbhyTYYy7nwc4jqVsRUlp3WBU9AtDDQct374WtZ27K9VW25s96b6k6la5zWN5blypbRMb4u+iJPJZJoACzPSBqLd+b9DsWfz4OpYAlYDZQoS8U9jx7WFDZN+X8t0DyqS4CGzd9SjsW9ggtJfTzph9BCN7WnTbvpUdMTtsyKeU4nQmL9utKX1mcSrtPBVaBa7TRebFdwHTiXxLih3F8U0ZxKGK8AWpJwf/BloFmKN5ebmAoupDhvrOId63kfNmlCovOVs27vofWOlRzbmxKBO0PnWPu71F9FTWu4lAjSXKOHCHLZlsUJX64WNeg8ggdbcvWkyPepHicRPQ6UViMxsen8Rv/KxQouJIp17a7jdzXH6s+u82JnqyyVlg0b3QxRSPjJLXG/d1ZmCUlRLqlFIn8NzkVQd+BuLLevHmHKx5QoZZqTNGCoVfpMef5jFFj6Fy+uxVWp4STwv8QR0eMqvsrCCi4kGi9vJDOO9yR7pvGZR0O0PKSLcnQHMSGPcT+L43WeWmVKYVFOqMlv94Azwc/AzeDLRNYKXE0Lr4ZWRX3DZNE79+6V/3+FWx+BR8GngKoH7wKRmG5i26xUDOiLBqLluO5SONj/PNgGWAE5WA9uAfPBBKAvY8Ua4deSWrKzQEWIiXB+BGg1o5vAXJGPu0e4jxM8Bd5TDpFS+mp+ObDQO2OV7NK9mOBo6vcPQTN4O/gz+D3QjzNrTbvtS29xzKzIDBBHmr7xaXAj2BN8hThRca+kZkLqRz8RpR8d+yiHFUnfA53gCPBtoCbjP4ELwaFEoMSmr6Ryt4r4yiu8lW7Ez7O8wwXgl2APIDEtxC2ZmZCGoJ7IeoFTnwDqy3gvuBuIL40MuBg8AFYRgcqxLgcL2d4HFLzeybNq3kIxfQ4irge7A4np5FIRY5E+DPNEFnGTXpNOolJz607gMKDfT30L2BnMB8qx1BKmirF+9VuNFOvBY2ANUE6mJudV+LkO12wMGJCY4Pp/8EqNQe8DUQPEL8bA+1F5YUIagS6JiUvUyy4oB5KobgPKnXYFBwKJ69BwW2ITZCq7S2CCIlsLTGp7K3gebAKyNrAZ6BnyV2JrB6MpLqq5/lruqSkLxXQRLy3u3g+UM3HYvaGYRJiQRsk2ERQJQ3cuI9Kexr0VqONQfE4F88AsMBvMASoeaj075WAyXbNbemvwf5HwBj/b96jEJpE+CWpOSKIiFNPF2sYkJuVMOl40MZmQ0tzn/o/IonuszwIgLxOJz3CsLgMNbCun0TH1g0hgGk0hcckkMJ1T7idR7ADGh9s4I5rue3HEq6r4ggwxib8PgqKKyYRUgMQ1iLj6PCXMxcS9RCVTbpZZjIsEJ4Fkayra1LSFYroEEsTlB4A61VXOK3idyYRUgqRHxEogiRAKQZf+meXPQCimL+KTxKRinsTkc3xR/r4P7YMJaWhu7EyFMhCKSXUmienfgYp5ypl+VahXMiEVilnzt6QMhGL6AoFQ3fR9IBKTRkSMuZmQxpxS87BcGAjF9HnCo7roKSAS05gPdDUhlUusWzgKwgBi+ieluv/Gc4lJw4iiBogxnYJhQipI9JmnY8iA6jlq0lbjTE4W5kzncbP6504FEpP80s97jqZlVPcMaiakQWmxg2XEgETUAuaGiV9dA7lYNzddA/YAGoVyKcDL4HeISX2BeZkJKS/67OYCMxClz4N4jkZ7a2iVGg9yNXUzSJjKhTRd5ktAw7HuB3lZFNC8PLGbjYECMbAKfzVKZC44HOQjIm5Pm4qIGgUyBUhMrydXWkqupOkyOZsJqZc64yHnJFTQG5fgu6aoaMjUWI7cUDHvP8EhIBpFwmbuVusJKKpozuCrNJev0j9zp9LuHGsGiA8l+IIM7yG+VU+SkMbEal1IEYlz2FAfw9m4LxGBkcCi8zXjwoGKTxowOwkUmgf5z48Euxtxi225NloMGk4TUi8t4kF9DJre8N8kpseI3G29p2rufyNvfDz4JMir3jACc2rWVn1FFf1LRri27E+bkHqj6CWctWABuBlchpiuw9Vkuy5EpZaeWjHlEsqNjgTtBX5p9et0FPgZRfG+1oWkr6LsKaB1Gb4F3gm+Aj4buosR1Qq22xGUIr7aTU3EvwcaUpNzJ2iWJEm0+lhVvNW6kKII1Mjgl9l5L6LRaOELwR7gy0DiuRP8jHO342rtBSWAFPfIrSoL32kNL1WQSn5VkZXxMmPRLp/hXeVvkpB+CjRV/IPgd0BCOgH8FChnUtHvTLA3wmoArMqcRpS7ccqs1hiwHGnoGL8BQV2PSHbmEhX7PgD2BxKVIFO96i/gHvAg1z7BPVvZNqsxBkxIQ0Q4goiKbRKL6k5XghngWHAiUMvWTHASeDdQh2E3YnoB9yGg1qjlYCV+rcQ1q2IGTEgjRG4oqKiRYQ1C+Tm3aNqyinJ7g6PBkeD1QLmXjgnKxVRZ1xJcqsCvAs+HWJ2xrcq2VnetitYr3qUmzYQ0ymgnwUscgoYOL8V5AvwYxMAOQPWrOeBAsA/YFej4NHAwUE4nYUb+KCdL4JeOvwg0ElkDKSUs9exvCl0JV/dIeDqnfT1THYt3ES6FxaxEDJiQ8iA+zK068UKQaZXVZ3GVuBtCiGONFNgPTAQS2gQwC8wGOrYzkDB2BIOZ+rF0PhJh1K8lIUlYzwETEiSUykxIY8w84lKOIvTpzERgz3BMCX9c6NbjCjomVy2oO4Xbyr10ncQooTUCiUcC1X4zkKiiXOxxts1KyIAJqUjkZxQJVV8ayh5HcMp5IoFpW+KJuim0rziT+CKTaKuiUzN6oUp0TUhlFmthcVF1I7M8GNAHKeQyD1+yv9WElD1XNXElCVDFyPlArY6VJmjl3Kqv3ouIfotbNDMhFY3qinmQ0sTrwOkVE+KBAVUR2IQ0kBc7UkQGVIdbDK4AlZgjqWvgPlBUsxypqHSX/8MoEqmP62GKeJXanK7KkVozi2ompKLSXTkPIzFGfVWVE+gShjRqVi1hEOzRxkDlM1DLQlKFVJDZ17eXB/ufIwM1K6Sw6KKKqawl7Ajt3bP/xsAoGahZIYU8rcTVqIB9wanAzBjIiYFaF9JaWPs20KBSLaz+xpxYtJtqnoGaFhLFu02kgGvA/WAX8EuJCWhgqJkxkDUDNS0ksYSYNO1BvfgaQT0FLAYXIqZZQCOwzYyBERmoeSGJIcS0HOdocA3QaOoLgYR1LmLaCaQXOWG/Joz3dSsZpYgk65ANWUdMr7B5BgnoHlwJaU9wCfgM0HCZ2zm3AlctfVqKqyqbzHlHpYnpISrtHdWdkeQd1hE/pVgGmceb9WGAyDgFPAZ6QGRPsHER0E+BqMm8YpbiIqy/ALKzQNR/1uedtcO5ceAToFJtGwG/dMCL9TvANVeHL/gZXDU25WWWIw1BH1+0Gzh1AyS/Hvc08CGgNRhaQ7yAq0aKe8HdXKeluDROrdJNa0isBxtAn1m+FfBiqqq0hShqcE1II9P9IJf8DVwO3gDeBt4MtM7CQqDluGQvSUy4T4I/A00t34C4VuJWjBFeLSm2iAD/umICPTCg+hgU1UxII9BNworWRlhNAtMqP7eEt8zDVQPFUeAwMDPEsbhnAOVO3BLoq66GCy11vAqsBs+H+zq2HTxL9a+sDH935MIe7lHdbkwNP1U3UqOLWZYMmJCyJEqXkcAkjnTxjYSsaQbLwNVAayjMAAeB/cEBQMXA2WA6WABkEmXkh76aSrCR6+OntrMx1XG0MIrEfQrhWp7NTXZN4RgwIeXIbfjV7uJ2QfYKifpZ3FuBEnk9EL/NYD+gTl7lYtFSXNrXthBtszkqW8/VTaO6wy4uCAMmpDGkFXGpOCSowrvdENgz7CjXUqKXK5HJHQzKbUYy5WzKzTSDVY0eZiVmwIRUhAhAYFohVYhyryI81R5RTAZsZEMx2bZnVS0DJqSqjVp7sWIyYEIqJtv2rKplwIRUtVFrL1ZMBqyxoZhsV8CzaGFUS6Kmk6j/q5IGraq1Uw0662ncUSd3Uc2EVFS6K+Jhapo/EpwNtPxvpZg+AOpXuwbcAYpqJqSi0l0RD1MflTqJNexJw5sqxZSW14BppQiwCakUrJf3M9Wh/GdwFlBRqVJM9X0Jf2kpAmxCKgXrZfzMcOiThjoJZlkyYK12WRJllxkDwzFgQhqOHTtnDGTJgAkpS6LsMmNgOAZMSMOxY+eMgSwZMCFlSZRdZgwMx4AJaTh27JwxkCUDJqQsibLLjIHhGDAhDceOnTMGsmTAhJQlUXaZMTAcAzayYTh2avAco7+1cMtx4ByQy9R4DXp9GPyYURJP49aEmZBqIppH9ZIaRT0XSEy5mn7F4ze53lyJ95mQKjHWChtmDVr9I/gQSK/hN8rHSYhrQU2N1TMhjTKVVPvlFMf0aw5aPmxlHu+qCYG5iDCPR5b2VhNSafkvy6cjphQBE8yyZMBa7bIkyi4zBoZjwIQ0HDt2zhjIkgETUpZE2WXGwHAMmJCGY8fOGQNZMmBCypIou8wYGI4BE9Jw7Ng5YyBLBkxIWRJllxkDwzFgQhqOHTtnDGTJgAkpS6LsMmNgOAZMSMOxU13norj2Gbmg1VRr3aJ1zbVmeDa/kjgsXxG5w15kJ6uCgWgd70mMpdNUh1q38SEB+iX5vFeUtbF2tZOctJTvu8C7wSOISfuae1RrppxoJjg0fPHl5NC5zLvqw5sJqQ8dVb1zC293IjgGXANeApryUGsmIe0LVBq7HjwF8ra8y4Z5h8A8KBoD5ELH8bCLwEGglkd3S0zKkT9GbmRCggizHBhAULtzm37+pBbFpJxoDQLS5EMzY8AYMAaMAWPAGDAGjAFjwBgwBowBY8AYMAaMAWPAGDAGjAFjwBgwBowBY8AYMAaMAWPAGDAGjAFjwBgwBowBY8AYMAaMAWPAGDAGjAFjwBgwBowBY8AYMAaMAWPAGDAGjAFjwBgwBowBY8AYMAaMAWPAGDAGjAFjwBgwBowBY8AYMAaMAWPAGDAGjIFqYeD/AaVWUEARmZ2xAAAAAElFTkSuQmCC;" vertex="1" parent="XqRsU5LYybaEt040qR8E-59">
          <mxGeometry y="-6" width="79.5" height="79.5" as="geometry" />
        </mxCell>
        <mxCell id="XqRsU5LYybaEt040qR8E-57" value="S3 &#xa;Data Source" style="text;align=center;verticalAlign=middle;resizable=0;points=[];autosize=1;strokeColor=none;fillColor=none;fontColor=#FFFFFF;fontSize=12;" vertex="1" parent="XqRsU5LYybaEt040qR8E-59">
          <mxGeometry y="66.75" width="85" height="41" as="geometry" />
        </mxCell>
        <mxCell id="XqRsU5LYybaEt040qR8E-60" value="" style="group" vertex="1" connectable="0" parent="XqRsU5LYybaEt040qR8E-25">
          <mxGeometry x="321" y="328.25" width="73" height="104" as="geometry" />
        </mxCell>
        <mxCell id="XqRsU5LYybaEt040qR8E-52" value="" style="shape=image;verticalLabelPosition=bottom;labelBackgroundColor=default;verticalAlign=top;aspect=fixed;imageAspect=0;image=data:image/png,iVBORw0KGgoAAAANSUhEUgAAAK4AAADGCAYAAABLq7vZAAAAAXNSR0IArs4c6QAAAIRlWElmTU0AKgAAAAgABQESAAMAAAABAAEAAAEaAAUAAAABAAAASgEbAAUAAAABAAAAUgEoAAMAAAABAAIAAIdpAAQAAAABAAAAWgAAAAAAAACQAAAAAQAAAJAAAAABAAOgAQADAAAAAQABAACgAgAEAAAAAQAAAK6gAwAEAAAAAQAAAMYAAAAA4oKCZwAAAAlwSFlzAAAWJQAAFiUBSVIk8AAAFndJREFUeAHtnQmsHWd1x2fmLs/vPRuHumVtIF6AxA5QEZKUJYvrhCildAdEqYRattCiKmqctIGqfm6VpsWmIXVBIoXKgNIorRCCorQqoVFY0gRBQ2Qcu+CFmBQEzVKwvL13Z6a//zf3+i19y11mu3PPZ587M993vu3//d/cueecmfE8S4aAIWAIGAKGgCFgCBgChoAhYAgYAoaAIWAIGAKGgCFgCBgChoAhYAgYAoaAIWAIGAKGgCFgCBgChoAhYAgYAoaAIWAIGAKGgCFgCBgChoAhYAgYAoaAIWAIGAKGgCFgCAwxAn6WY4/j+Bm0/2vIuVn200PbAbr/6vv+13qoY6olRCAz4kLalzPfbyL7kC8jmfVF292kEKW3IWuQP4G8t3RTyXRGDAGI+2HkZJmmzXiOIt/SuJCvILUyjc/G0j0C+urMKk3S8NGsGh+g3W9TV2fdJnIc8r5ggLasakEIZElcTanoy4PFYOUqwQ+RSyi8E3kM8m5bTNHyyotA1sQt78wZGeR9J5u3I/dC3p2lHqwNbh4C9XlHI3gAef8e0j7C1B9gezHbXyVvegShGKopj/QZt7NSEPUb7D8fOQ85BIGfw9ZSiREw4s4uzpMQeDOHMt39APJeOVtke2VDwIjbXhFIG2uX7VvZXI/cB3nfqzxL5UPAiLvImkDe28l+LbIH8t61iIplFYyAEXeJBYC8X6VoNXIx5H0CWbeEqmUXgIARdxnQIe8JZBMqX0REXtl+LZUAASNuF4sAed+M2k3IQ5D397qoYioZIzCKxHU/wnrFFfLuos6rkb+FvP+IlNEr2Ou0hlZ/1BwQik+4FNJ9km0/xIuop5DINyLnIy9DLBWAwKgRVy7eixCFOPab/ouKsvVu5w9gUtfB/TZk9fpHoJ+zTle9sah7UbyEhZVRv1KJuW1kQocQEben0E3qWnB9Cmwo9Iy74eYDL548dWrdRFCLx5nMuNfytKoaVHKcbJXX8Ga8nzpblug1OF4zM0OZ5+qpfqPW8p8Vxvv9Pb/4E7JLlSBtWYPrdzK2oQquL5S4wUy0I240f96LYq4dYy/2a14Yx16Dw4DvghpbDTCKQ6/Gdgadhhd58nGFbBscRzXf0y9MgHf1g8ivnfLi3yLrQaRs6V0M6BRn6dJcG4PbLzGmY8j72b+W7RWMb5BLKZrIPhVK3EO7t8i9OkqpzMH1+jb4D0TB9edDXpG5tEknK0v5IpDZ74oBpgFPhyu43og7wGpXsSoEluXl7Uipg+sLvVSo4sJXYU6Qt/TB9XbGrQLTMpgD5C11cL0RN4NFr1CTpQ2uN+JWiGVpT4WzbmmD6wu9xt1ww4E/bXjhRY0gjsYIWpGtdgyph9hr+e09hq1WA2z6UdyMYl+BBnI2yH7bxGyLji+br3Qb2HGbbhu5ByaMeUFcp/4Y1t269F092X5pN4pdu7IJN51tWA9ZSOo5XRas6ft/Pvmhbf+JuiUQgMS3Yyb7Ort6kMprOH5LkcAUSly49XW4dwzu8ZctK1HoPuMABwRHEUwOMIXHUUC+XA6JFnXYaR/7ia4cFmoh8CkNQxrEUUGdhaFg0lGZkvY7n9qTrmubnZmw9bTyLM0iAFm/CmkVXP8I2yfYvoS8J2c18tsrlLhHdm2+J7+pWk9pIABRFVS0CeLezVbB9ZeSp4i5XJNd4+YKd3U6g6yFBtcbcavDpUFmsvCKqqu2IG9hwfWFXip0hY4pZY3AUAbXG3GzpkX525eLd+iC64245SdWpiPk614/kAf+kcyPtI20sx3p67Kj10kWT9wVbjpMTFSz08oFFbpjQfPqanZy7I1acP28yfdwUChx12/f/6VV7ztyWR1DrhwBTQWRY1zVNnEMxO6uxLcqX+WUvfdsGXW40TZxIsiBgFOBsjHVZ1/6zikBGLqIO5tHvpwcODBwQshBcdahQd/UiWiXNk7+wRd/feJvtn2G4lzTCAbX54rvip3x1bEXeXR5Rd3inY3ofohBZLlx62sRUZpYTm9hGfpdYLKw1nAcM7e+MOl3doWecflCzuzrmL8ISxVGwOy4FV7cKk/NiFvl1a3w3Iy4FV7cKk/NiFvl1a3w3Iy4FV7cKk+tUKvC+TcfWNcKp8cnZ1Y564JsS3qCDc/M8Dp2puQ4yV+YN/c42T/Zru+5+nPrqtX/rz+/v46+9MbXBk/6U1tPq16eyYLru0O7UOLOzIR31r3a1qg+E8lJEEVxPOPHfoMw8uSpNUnIt+5yUJrGYSC9VtvRoPhzOSvE+mntE5lO6Dj1qUfmmba+wsnrNBEGcjCozZiy5G6Klqvnuzan8ZZxB4R/Rhbap8M3ofJ5JN9kwfX54r2wt+6M7ek5HwZxNixWd+F85h73a2zvDpO5PQ3Pfr+Y9DvDQs+4aTogzOHQLwWGs579OBvOdRv5URtxR54CwwmAEXc4123kR23EHXkKDCcABf84G07QMh+1BdevCHGhxN1044Ergig8rxF47lH6Ov2vQnguudfkQSCreCCInjzT5FhlsuE2eNiHttJrUC69oG2vlW6n/iryKUan3Zb2EZe3QF/tBerT6STbsVp038RfX/M9snJN2QfXC0fZvJOtC7jnuMzB9YstQKHEjaLwV+q+f0GAETCCTBqMnANuUNi39IR9/Avk+eRpJ/b8IPB40A15SCt5mo3KZA6D/063gXk4ItRXdzjUIkrYh8fcIUFLHIq8Pg2rjtwXSa2kvp6Zg8R4QL5Nce7EPbp78xX0m0kCwYEST/kZtImB+p9buVDiHvnghX84dzC2LwSyI4f+UKuS7MdZVVZyxOZhxB2xBa/KdI24VVnJEZuHEXfEFrwq0zXiVmUlR2wehVoVRgzrrqZrwfVdwZSYTLtT7UurNHa/vkZfQCULru8O9CzPuCcZwjO7G8bQacnxpOeLaY6ppsO7t1ybVoNpnzVGxQFxGwvwHpxi+9h+CamK/VsvcdfTuPcgGaT0HBBVAXwxkDM743I2+g6kXUenr0fOQ9I+AdBkIUkv7XgRcriQ3q1Th0BmxFXrkPcpNp9yPdmHIZAiAmYOSxFMayo/BIy4+WFtPaWIgBE3RTCtqfwQyPQaN79pVKcnC67vbi2NuN3hlJuWBdd3B3Xupj5MZL/M0FrdDS9zLT2J6d/zelEJc99Lf5fQ3+bMZ5ZzB8xtI10eQiaZX+qOmYXTye2My8Q+QOc3Io8ieh9s0Ul/PK9CnmJsIpPZZYtekbL1DzF4Np1LF5RpbO0xPdje6psg00Q/9vKSlBDOy6rwnPZ4D6Y07jSbuY7Gfgf5LMS6Nc2Gra3sEMjrUqHM7t41XCboTHgAmO9neyHb3yBvOjvYreVBEcjrjDvoOPOo/zU6UWzFBuR/IPC5eXRqffSHgBG3jRtn2Bg5gWwh69PIMci7rT9YrVbWCBhxF0EY8v4u2b+P3At5/2gRlUGyynzZNMi8cq1rxF0Cbsj7EYpegdwCee9Dakuo9pIt+6YF1/eC2BK6ef04W6L7cmdD3och7LMZ5f3I99h/JXnfH2DUFlw/AHhzqxpx56Kx+L5iil+G3IX8N+S9EvKKyD0n6llwfc+oFViBxT4XUcrdxbzctJMhxZctpzO3DP3r23XkAbRUdQRY7EoQV+vEXK5qk/eTbO03QkHkNeB7BJ6v+3up8jPIVkQmM9l+LeWMgBG3D8Ah7xOIHBQPIU9A3kv7aMaqDICA/TjzvE0Q73ifGE5RT3ZZBeq8GzLf0Wc7Vq1HBHL5scSi6ux0DAlY3NIY4BnXA4zp+T1itlA9JEMnAM2RB6z7OraUMQIje8aFtHDMf3Ua+NKWLhUeROSk6Jm41H8p9UT8MiRdPn4ZbH5chsEsNYZyEXdqKphqj1Tbzn6StSPZuM+dc/Y7u0n5Dm8n/zxvrrY/NZW8xbqjypaFSfPMr3d/9JwgrMI9FdzzLOQRJJdvQPpZKgmni1XI2N4ARvcspVh0fi5AAYLOJsteKvC2mTeNr1pz9wQvGJGMc+k4ibhjbTuickatfJWP65jGJ3hRidNx+Un5BNxcveoZnv9nmzOdJ/O7nCHcj4yx2F2HQ1Lvr6hzPXX6Ij51U0+M6QiNClJ5DG9lbO9LvZNhaVDERZQyJdBSeOjt6EuVpZHPvC53s+NOj17ao84nkH291Mlal/EcRe5GLkJOI59DeppX1mNU+yNhDivTUwYXLKouV9II3lnQ7MCHTc6036CV5yHnI4chry5nSpNGgrilQXvIBgJ5n0JezLAfQH4IeV9TlikYccuyEiUeB+R9M8O7CfkK5H1HGYZqxC3DKgzBGCDvLoZ5JfJ3kPcfih6yEbfoFRii/iGvLCeK03gt5P0uck5RwzfiFoX8kPYLeTsPtj7AFH4EeXVXdO6pNA6IZ29/ZHJ1WH/uKu80b/LWO9C1xTDahqSzv9hxknfG6armYjr1ejOutaYxmCZ6avZsmzyIaaxdqVN/bptNrx6tXVs75k9tLcujo9qoFLaZhsDXQtpbGcE+tr/N8Z15jqY0xJ0I6ttwZt0Vx2NxiBOh4TfaD9/XW9Bj90ZzvRNdmZR4NdDi64KXoevt5x55DS+I9Xp1z+fTvdpeZdLXp986E1NOfbWm19773EQW6d5eGgz9iKIm/iL50yKff+w11SZ1afH06ePRK9l7TIejniCpIJX38WaWQWazf2L7Co5vqBQ2TKpQB0TWYDK/fh0Qe6n7aNbj66V9xnMU+UyPdV5KneOI7orOxVlh17i9rJDpLooAZ1p5//RDTW8k+jHkfcGiiilmGnFTBHOUm4K8IaLb+T+BPAZ5r8oSj9Jc42Y5SWu7ZwTWQjzd2dzPie0j1OO3hPcF2vhjyKxAotSTETd1SIe+Qd1TdzXyzwPMRDHJ30X+EvJ+CPLqAdqpJiNuqnAOf2OQ7J1pzALC6s6Sx5FMgoiMuGmsUtZttAPsp+hHojTlZId222lnZ+fsdgfh9MrtBNerQDWUN7VIcL3KU0wyiWeWdC2SeeKvb8VA8pfcdHBN2Dq9SbYU2WklimZWUl5nv7NtejMuT3pKjRlePpDsks8BScedtjp6c/Pm68yc1Z3t74RUvLX1RmvyxJGD/h3vThp2ubMfzK/fQPK9tLLsOyE23bj/oYmxNZdMxiHB8wTOEzA/yVZB8y7Q/mwAfSfYvhNgr+MkuH6uvgL0Ca33jp/632vO2fO6f5udRbp7YLKRFg8hmbwTojRn3Jk4uqxWa3xU94y4XwQ4IUL+rOoskv66Wnw0ojDJA/yAfy3KauyLlEEj9kLM4k30IloQ+UKVcxzTlkLJG+iyRwmJMtWTM0I5zllBXie1uHWsgQevSY2wFU+fHt/wC5Qd65Tns439Q7t83c9maQECpSHukV2b72FsZblhcAFMRR0mHqqiei9zv/2YO8o8HxvbiCBgxB2Rha7aNI24VVvREZmPEXdEFrpq0zTiVm1FR2Q+pbEqjAjePU/zhdc/+tzVfjzp16O46QLhkyYU6N4R5XT2O1vlTWJLVPB8xxPQKdNWaf5xEmA/Py/R6QTXz9Y54zVbjfjkmZM/eN4dbzjpGsv5ozTE3XDDty4mBnxnkxBu2Vdlh2WtvDG+ExpsG0GU5GF1HYsoJ7+OjbWpMgKbZaMdw+SrPNUf41h52k+OI2zCSRi5Fkd66McNYseT/hRcrnzph+y7wPKkfhyfqfvee1bfftUPKc411Rrxx1pxtLUpE3StyciYJyMgKJ5Pn8/IPQZH9mw/sUPrsSs+8/IiDNt1r+Gs2MIiQGS5Vk2C5nVMuLzC5sGLsPoaLShYX8+hiOLQFx7KUx369YUXdSgXapG3erz5FlQ+j+SeSkNc0Hvar0Wf9v1A4DkHt7ZufYAlAF1d1wCkc0h4UeScBr5ywtDzKYTb7TxBLUnqBLSTaIftdtFNWiGKP3FwtF0QbgHUh5KWWH3iwAgnZ5qJG82V5PdxZNeW1+fX2/D0VBriHr5ti9yDEkuGwIoI6IRiyRAYOgSMuEO3ZDZgIWDENR4MJQJG3KFcNhu0Edc4MJQIlMaqMJTo5TDoF24/uH4yOu2e0aUg+o5dWl3PDYpXvkcA/by8OcH1Sb0ZZ6vutKMaylcdpU6Q/mwbSXC9ymbz2sH1tXqMg+M7/u5rCjETloa462/ad3Ut8j/WwCorw3cTA7gGJ0N5U0Hf2FvlaGhiMJcjQQ4GBY3zXBrnfEDHd44IHknj6mON7zgXZHzHgI8+BnltnYMhUJvoSF+GevXZblPbOftjfnyqEdVfN7Fn6+Oo5ZpqXusDYdB4FWPEn6DAeLwAbg5YmZk/cfeMR+HxcsDwBSoTdMf4TXC9btkQHnJOKPhexS10A6o1cCK4t62gLyzVlois1uSkUIpUxla9qA+f4PoGpS2UTp72ryP7X5DcU2mIG0QRL+8I3uY8QMAg/0wMxG4d+NA1jXvcEvm6q8FrhV7E6IMW+WzhOTqJvrv+AelkSVUvaUt3SGhhBL88UI1YS6jyRHSXhG5PbfDGJ+27fG15ZsD4Mz097C33dGT3hW/MvdMh6LA0xD28++U/Ai+JJUNgRQTsx9mKEJlCGREw4pZxVWxMKyJgxF0RIlMoIwJG3DKuio1pRQSMuCtCZAplRKA0VoUyglOGMW3Yvn8Hi3QpDyZxAfYuYB4jawNDrOyrLpierYLtm4GC33mQicqxAMo+jSmXQPnEFuuOyUvqyb5L0D32QI6lm+jx3HbpY+P2XZsYBVXvbD/t+mPuKSvxLWv3XP1gETjlRVyZRKucZA5WSn2efCV+k4D6x4mU16P/cc/IJo2d2QXNy76dBNbrk/cBMAR9iWKN5n/AroLrZRvXAFWaaCdaro4USSpP2krcDHJGBLoXwpXKRq7wegL2aUVOCzk/VsXe911xVT8AAUeUSz9XxTkys3dpdr3OjSp7kVI9Sr/XOSylz7w2IkodT/JSqn3l53LGxfM0zQT+ghE+zFYLVYh/uy+EVq7006isR35zZVXTSAuBXIirwULe90NaPZ1aD3GT57Uqqc7cPleVyQzLPHIjrgBhgX/C5gvDAo6Ns7wImDmsvGtjI1sGASPuMuBYUXkRMOKWd21sZMsgkOs17jLjsKIlEMAB8SmcDpcTFE+Avd92JiQB3+THPNWGAHovrhNAT8B7O1CeciLHsUH6TT3lhzIttBwJiejXcdKGjvXUG/1aHlM70nHB9S5If15AvRwXzhmBPrqYhcPrzrn9mkJ+sxhxlyBMWbIDv3WbHwcflydAdybIJSAHhL4q5RxInArs4zXjof9eIH8CqyonQeKskI6e45M4GTpb5fjuXoiOMwI9LNEKxldSuxJV1DYguF4p2ad9n7cpnzi132Xax2ghgHnQHBB9Lrld4/YJnFUrFgEjbrH4W+99ImDE7RM4q1YsAkbcYvG33vtEwIjbJ3BWrVgEjLjF4m+994mAEbdP4FKq1jHFptRcKZvRHFNPRtzUIe2pQb1T4mex51ZxHS4QEkQEZhJ7nclfQ09LN8LKEHYt0z+IrEMeRqqyHnpI34uQd0Dcj7NNPVUFqNSByaNBiMu6ElQQxzo7rc+jz5z64PmD/mdz6su6MQQMAUPAEDAEDAFDwBAwBAwBQ8AQMAQMAUPAEDAEDAFDwBAwBAwBQ8AQMAQMAUPAEDAEDAFDwBAwBAwBQ8AQMAQMAUPAEDAEDAFDwBAwBAwBQ8AQMAQMAUPAEDAEDAFDYPgQ+D9WOmESWUuPbgAAAABJRU5ErkJggg==;" vertex="1" parent="XqRsU5LYybaEt040qR8E-60">
          <mxGeometry x="2.48" y="-5" width="65.92" height="75" as="geometry" />
        </mxCell>
        <mxCell id="XqRsU5LYybaEt040qR8E-56" value="Custom&#xa;Chunks" style="text;align=center;verticalAlign=middle;resizable=0;points=[];autosize=1;strokeColor=none;fillColor=none;fontColor=#FFFFFF;fontSize=12;" vertex="1" parent="XqRsU5LYybaEt040qR8E-60">
          <mxGeometry x="7" y="63" width="59" height="41" as="geometry" />
        </mxCell>
        <mxCell id="XqRsU5LYybaEt040qR8E-83" value="" style="group" vertex="1" connectable="0" parent="XqRsU5LYybaEt040qR8E-25">
          <mxGeometry x="508" y="332.37" width="85" height="94" as="geometry" />
        </mxCell>
        <mxCell id="XqRsU5LYybaEt040qR8E-55" value="Embeddings&#xa;Model" style="text;align=center;verticalAlign=middle;resizable=0;points=[];autosize=1;strokeColor=none;fillColor=none;fontColor=#FFFFFF;fontSize=12;" vertex="1" parent="XqRsU5LYybaEt040qR8E-83">
          <mxGeometry x="-3" y="53" width="85" height="41" as="geometry" />
        </mxCell>
        <mxCell id="XqRsU5LYybaEt040qR8E-51" value="" style="shape=image;verticalLabelPosition=bottom;labelBackgroundColor=default;verticalAlign=top;aspect=fixed;imageAspect=0;image=data:image/png,iVBORw0KGgoAAAANSUhEUgAAAJwAAAB8CAYAAACc/NnPAAAAAXNSR0IArs4c6QAAAIRlWElmTU0AKgAAAAgABQESAAMAAAABAAEAAAEaAAUAAAABAAAASgEbAAUAAAABAAAAUgEoAAMAAAABAAIAAIdpAAQAAAABAAAAWgAAAAAAAACQAAAAAQAAAJAAAAABAAOgAQADAAAAAQABAACgAgAEAAAAAQAAAJygAwAEAAAAAQAAAHwAAAAAVTupkgAAAAlwSFlzAAAWJQAAFiUBSVIk8AAADCpJREFUeAHtWwl247gObM/79wpzsjAno3Oy/Cq1qIZhitq4SSLf03ADUECxQtnpzJ8/F2q/v78Gjxsfe6HSeiktMSCEhuFb68Jr6bDOnAuk5W+0N5WpBYd5F96ZD7tm7hBPTGiW4sITasNezdw79okYgIKiQtOlwD4mPKPt+7wzMDCwIDS3RFNMeEu+ff9mDETE4ijELXREYtktcbrtBRmIiGOz0DQ9kdhW2/b5xRmAGOY+px0WmqRuFN3sZzxp28cXZCAiNGz9/uYqGaEpujnhmVy4PW4lBnDYczcatv613OkBiaJz/xCH0eIXktx59fiJGMBxxoRmCSMPPxHsYhhgUnhTW3ToBm0zgJNcFJqvYDp1DPxaib4WbonaboWBg3y5PcTBOoyNJkPsd8FpcjbMweMc75Li3GO7IeVjppGCHfbMXHTJwJxNjvVauDlqYUxZT81xrvqmuChu7ifLYc9MhjMDSc6MSZblWrhZikFQWU/Nca76WKDB4wLFcc2sBZb+a31S2NXCTZF7KEbNerJiI3gSoXnSsibrQQJ9LdxAKkmWataTDRuBKbZQs3tZk8H2xtjjVwt3T65rfGrWkw0bga0MzvkaMmI2Ml7MLvVeLdzUdfh4NevR2P/5pBL334/HwyaO2cNdgIFcgrsANfcoATeQfzPZUMViX15WoXHQPxQzyZpKLAm4rCpJkiuD1MJdmd5ms1g9sT0Cyf2lcSgx6cP9fsOFWOpr2Rj4X7bIPfDlGMDn8ocuijeYXovNu+AC7ISIDZj1pR0M9FfqDtK6y34GWr/hvveX1j1bZKBpwfXf5R2XDD5i2eNR0kVoWnDpyrxnJIiNfyJvWqq+f4Zr6TQS5tKi2FheF1zCQ24lVKti64JrRSGJ8oDQhr/YQTgjQjb1xavfcOJkzjyk2JA/P7PJ9p3yixcw3poEWzPuXxrWsNS4DVRgkKIW2yfE9mwt9X7DtXYiG/OB2CxcjojNv3J9rzOYW99rp/32zVm4uG/tvijdawsDinNPv9Ex/AZ7vZd7ngUbQflh1Yng+icud123iw+u5Q84qZ/lXJzLuQWHQrTQZG0c29spoUDB5FURPSs2piNtC6T3ApEEG0GWhCZxOLYvWfTJbgbIpSI3KjYCSfvdwDsdD2HDOSY0x33mhV6TgqWhWe73to8BMKh5tWsijdwP3Rr7lDa7sOG0Smg6Ufhpgjy+1bZ9HmcAxDlP3tiv5lD5VZvGK8QuMtslNB0YcbrwNCkb5uDP4ZHNbnDnOTbRZnNGdkmEpgEQtwtPkxKZz5yDjbgEtyK8Y6tYe88b0FmEplkATheeJkXNx7PQang/NOV3mikqc7q6cc51k6MQxL2t8CK1YyvYbI4zqBIT5YUO3mHdlEhoBh/L1/11SqRm1q3boXNAsND5aozccztpSSE5zA8VOAXeOABukJi5MLBnrrmbncM/so6kg7WqYhzm5ggOfVXMatOpDpnBtFhxgHzkYdhQKspGlpBj/PLL1RHbBYCCuYbyL7kWyLPK0lSzRJ8WGxggLzuXhsy5xNjnwZwW8GZz9jFK9zLf2thN/z3c2j8ehN0jB5E8qB1xP3b43MalacGtPQXowq6wfco/SFzpEwr7JRY/GROxDNZeXrvCpg81AyBsanqv1fmU8PqB8bXAxax3+2spfCdXsSbjNSe8KWEMfM6leo195huOf4kqb5ucHH6DOAMAPr49/UD1FJ8W3Q9uQqvsbjk9reB4gDjYJ07NRE7uY2Hfuy79GTXjaHH/eOdAb9QaRfinRdEhL4tcdW0q/Wn6rWsQ/m97k5cewGlqeu/McxTlpsLE77OwtvoVqGKIcP8+N6p40kaOXS0uZRI6B7m3Zhzz13ucy5icn/aGY/KFmhE4T4x5s718AcFP/RPEfgo7PzQYrL09vM+l+y647cf7AZcPCIyvyCfdMTboTi8s1PNgPbqhvl+9tnfeBbfM3BMmZjTzPafDTTeuszNiHBrS/vbtv9szsExAKqE8l6Gub9EFt3DGeMvY8VXzCdPngjm3aUPb6aE/Gtdv35K8UvGKt2QSpA49x1drFMz4Wc0s1bZGXCNnp//ct8SF3j8sOEkcxvxA/XNl4WkC+3wbAyleqfKn1AD+C8Jjs9tS6dZ3YOCw4HCbPUDUd4Csr0F2XXgBav5+/CB3JVowgUqLhwXHvEGa/2AdFR4EaCrV2WEbYSCJ4HwtS8KDnYPoLB/v0/t2GMC5BFvKDJMKziemhKdvPX7m+xors96n9/dgIIvgPHWj8Czmn3i08Gh2CeGhzieL8Q0/TLzFzdi3fqOHzsWXovuQrV/zvfZ5n4OYqb3vpl0BEA9grtmUaABxAsj42FijGHxzfn2ph8OsH/ZidRFrwl/CSb1PcN9Sx16K53HZ0zbrDRdKRr1utYn8FYvea3rOuppOsJHkigvO170gPG/WVK9enbztrEwQ+w/M+Wrh8xx7dEM77Q+TLyBFf/hfGlIkIWI8xbjVIcXkxfM1vimY65OCxGM5wbpBx8c34we370HO1EqTAWD52cemxEdsNxU2P3BbMVfG1YhJa9uSs0xki18KW41d7ZWaopgVMX4S2byEwS32iQXedKdrUgAlxkGCFLANGmVaBLYT+CY1DGLLG1RADUN7FG+M79Dzkc1hwof4yevakjfwm2hTzsjGBTKyk0HGgcTNCHPr0OA49kMnjyDn2E6HABQTSeqf4eSRZjDiTkWmidqjnIaBUXRzPw1ctymLGfG84DZ/eE+ZS+lYqnbPQahPynnpOjXey69FxFd6b+e//nM+jMHIsOdtveHWHnGM8lnzAV+53GL6Rc6P8A1/C6bkWdYg7ntVDUwWT6htvvEQxOBx44PupZGU2zRUPsfrCyliYveSI2JUHW7KH5nOERQVHvy8yGLFuk3J3MQ4wPkunmLEl9zbdWwBEmTOFB8FtkZk9HO03ZXITZzADznVbRNn0rk0bcmwEShEhIwfGjss8tlEWGmSWsMDXyGu7do84T+1tT6p7CZgDJLERJwQGRLHYWL4JAG8aZCRQ3Qvza6hQ3qssU9pkw0bgZ0IzrFJmXiP9ZcB8EpuZbNL3EjjJdvU+9mwEVjedIskpC7sTvEU1zxTh8fMcUAD3+Zscq17XPbEuPo/3ufisWrc8fdZ8o8HDBJyOFO7NTH64GEL+nJ92F3+T9B/az6r7VViZcFXZ3ktQ8W5l8Qb936DvWYgtkdbub801rG1P+f9hguxdJK18abjn0rJ9gVhWLnQ0rgLrqXT2JELRMe/Mn7A9Sncs4iOOLoJzFXDLrhVNLVvBCHwppOf6yg6h8e0lH0XXEuncTAXiM4ihBSdwXzXP4fBL0vrgstCa72gAdHVSyaA3AUXIOXsS6Po+Iptrp1acK19PmnpdCG60JeJ6imeVnAQmwV7/FDMPmljTP8kDVwhGITX5E13mIrxgNANzR4OuBDAA429WTDftC1jb3Js1DhWT2yP5aTeP+UNBxLkNy++Op6NnnVPSzHw8v80qL0mpxCbRWJGJCd/DSCW+zA1A7ztjsY81Q03iu1LFP3dbzfBxgmGpxIc+NRisyfguPUU/RvC9zrfufW9dtpv35y3D6/csdl9Uea9EFfGP3y1zyMtf1CO+ba45w+Ffen8smEj8IsgOE9VXM7YoRyzkRQCK7BWs55s2AhsZHAxtkc4RZxsQp7LS+Re/EaYy+nIes16smKP4tAC8Zh2D2neeex3xdiKKzG3+rZoX7OeItgAoegOC0/HKHWYRUgqVQxwatZTFFsLRoJzL8Z5wDdqH4u1dU/mudW3RXtZT81xMW4C4pF1W50INo00oL+2yTmX2DlxSsWW9dQcl6p3wqFwIgVbbwgbJ+ycXy/VC+yrfGmI8S7LzTmezrfUOU44qCpGgJNVT04FB7XxC5Z6L6gF4fHcbWlGgPnyOi+N3/EKMBARHm9CWyCFASKURynsjlOBgdCBY40tq/DG+AOQ+o+tQEOHLM1AKQEAh69Ph0c3hwVTuu6OV5kBHDpvtlCzR1JDwC60IwRe3RcCSSK8iNAo6kMivvoZ3LK+vcLrQrulXNIUPYpu9Y0XEamjENNk1aNcnoEl4XWhXV4CdQpcEB62p+YwMnWy7KiXYwBimnvNdqE1dNqPhnJJkgqFh0AfY7Af/F9dnPfWGegM3JGB/wOUAi35gqd60wAAAABJRU5ErkJggg==;" vertex="1" parent="XqRsU5LYybaEt040qR8E-83">
          <mxGeometry x="4" y="1" width="66.67" height="53" as="geometry" />
        </mxCell>
        <mxCell id="XqRsU5LYybaEt040qR8E-85" value="" style="group" vertex="1" connectable="0" parent="XqRsU5LYybaEt040qR8E-25">
          <mxGeometry x="263" y="208" width="238.63000000000005" height="26" as="geometry" />
        </mxCell>
        <mxCell id="XqRsU5LYybaEt040qR8E-7" value="" style="shape=image;verticalLabelPosition=bottom;labelBackgroundColor=default;verticalAlign=top;aspect=fixed;imageAspect=0;image=data:image/png,iVBORw0KGgoAAAANSUhEUgAAAPgAAAAmCAYAAADp5VZUAAAAAXNSR0IArs4c6QAAAIRlWElmTU0AKgAAAAgABQESAAMAAAABAAEAAAEaAAUAAAABAAAASgEbAAUAAAABAAAAUgEoAAMAAAABAAIAAIdpAAQAAAABAAAAWgAAAAAAAACQAAAAAQAAAJAAAAABAAOgAQADAAAAAQABAACgAgAEAAAAAQAAAPigAwAEAAAAAQAAACYAAAAAJ3UOOQAAAAlwSFlzAAAWJQAAFiUBSVIk8AAACi1JREFUeAHtnGuMXVUVxzvF0gfYgpVCQbEiiBqpJY1iG9sZH1VIEHwElcSg5QMRNWoxqKnRDhJFjSg2RG0xIH7gg2hUlAY1eKZCjFLSNshDBAxCC8UKLRXQ8uj4+++7180+Z/Y59860Mt7rWsl/1t5rrf3678fZ5/TClCkuzoAz8P/BwOjoaBGBmhQZNqZpvYiYlI7QqPclz7zz0kO8DCQbatTSrp0BZ6D3GRhAwij0tIqHUoEemqyh0bbaNylIeF+YDHgQFyYFCefFeYGBvLA+tEYkRYhopUcn/QlOP4a8L2MnzXkZy4kszktHXorwCNemUmj7kZ4v97xYvS95mp0X5yXPQN5q62Vq3u1WZ8AZ6AcGfIP3wyz6GJyBGgZ8g9cQ42ZnoB8Y8A3eD7PoY3AGahjwDV5DjJudgX5gwDd4P8yij8EZqGHAN3gNMW52BvqBAd/g/TCLPgZnoIYB3+A1xLjZGegHBl4wnkHw65g3Ev9KsJlfvd1eLYt/LrYV4E78t8mPTYeIyr0C3IL9bvQBE+o/nsqWgAfBRuov/eQW/4uxvxnsBb/F/wRa/VqIWgS2YPuTbPsr1FnLD7451K/2TB5Tu9iXYphmRvR92Lcl+a6T1JUdq1WAfxbpIXAoKGhnJ1pcLEfZf3i0D/tNsu+PUOd0yov3w8FG6nyoWh8xavP1YDf+v5BXvxZX4nbgO6BrplL/pGUZb9N6eQ0dOyLp3KPwEPYc5bTmTwEj2LYnMfkkBYLkvS0rAcMxbC/6OXBOGk9+GXga3AaeBGvlR68H+8DjQP63puWqafxBqvZcnsAVQP15GDwL1qdx5OeDbWAXeAKob9PBJ4FkR0uNXpqWs3T0lQ4M81U1sZ34OY0Y8fZgxDrVQVqbXDZxJrmgWneMC86cL/qzY7V4Ch8CtgDxJT409qOB+JAor36Eg9nK5bSCJTmfbLgGQAEkmnO1d1IaT/5UcDuQXBnLvZ+08SMtuSotV023Qur7Uo2faJ52NL9FbG84V0/01fKSliH2i0D7YjvQuvhgxa99Iw60fiW/kB/9NfBvsBVozZ+flrM09iAhX8pYRKLxzwZPgUvBTHAt+FsSooavBJtlQ38E7AYqp85/HMwAIyAs7LRsmsYfJLXVpQncAO4AB4EvAA14nsWT/gzQgl4AlgHJe4D6d4bi0D8Bd1mZVGMPktpyaYK64eds4kqcWV3YZ4Hfg1vBbLOnGnuQ1JamcWbHajH4T2/VMLoUfQzQIlGZeUBynMV20q3w+k2FXwev5ExwJLgHXJ3WS17zpUW+GYQNXvG/HLvm8wOpvZrGHyRjL6JLarjqtzy+QgFRsnH4hi0g0WNizWd112niDgY69OyQv5F09mDFfgHQXOmJrfV6H1gT0z8kvSHXDvYgwVfKZKLxL44xy2LFK2Ne184g5D8G1JELwc/AzeBwoBP8wwpCrwb3hAI1f/AHqXGXzAT+A3xDRvSiUJAngwWR/zG4NcmL1K9aXpq8SNqa2iyNPYjl6zRB3fBzPnFPAXEwBML3D7QOpw1AckxDGyGgwd84Vgp/KFTQuqZr3H8AGvvx0b4AHfpU14bZY3ztkwr/p4HWQngFRF8Ntlj5VGO/DuQ2+FrsD4BQR1omTeMPUrENmz3RRRqjNL5u45Jq2slcfcFZbaeaJ+i1sZbTYz8+FfMz0lhsg+AZsNLspHXj+znQIfEjcI35Uo09SFcTSsHDYmF7jzJtdrk3Ab1LXgjOBDfwfrALfR24gtY0wV8Gek+ckFCHnnQGtfUiYE9f0+0nOD6lzU5yyp+jTWlN8ArU2eBy5bsVyk0D7wbvFShn70rGi+mUn7uJux4MRm2L+hDyLwV7wF3Utxw9EWkcKxX+CjwLrqKNz6GPAultQdw8gu+b6P0VjXsn86/2JOIj5SIY6/7QB723nwsuT+qoC8/Z12SMQxlbt3EjmbK5+jJhLRNj0s03rF0stkZtbZo2u9Wjh5cOON2EwsOVtGy6ff4dnAW+DWql2w3+SKzhhIpWIybfIqFFOx98FlxMpxSvTrwNrAU3g21gonIvBR+L0OmnTfMSIDF9Zysb/t6R2GVQTPDTN/Xpp+AyFtH30eMRjeticBEYBruBpJYf2tAHvrPAO4jTwnoffZhJfg/Q+6kOq/tB9p0KeyepHasK0sYO1BLwV6BD9mXgJuz3ggHSM8FHwSr69Tr0/ojWy9HUMytWIl7StdKpbuPgik6BNf6RjF1zVZWRqoF8Lm5jl3GZsPAgeTWOXcDW7sMx0Nas9ONge7SbOo3EiUD79HvweTBa34u09rT+/wjWgWahYJC6KJy6DuhDlq6SbwGbwC1gLtC7lK7isum6dQSwK/xi0oPgWKAFrSvyl+rakR1/kKYY8xF4GdCVZTn4DtgJpoLzwKvAu4A+rulpey6QnASUl6wDetcTRF5JsAUpGTMZgrrhZwlxJwO1pfd+fTzRTeDt4DggrnaA0odCaw57EMtXNc66sZ6KT22oj28C2nh6nZKcCNSfN4CjwCogOblaf5pvhTS+gy+MMZeg1S/Ny9fBIrCqUlfpio5fH/201rq6VREXJK1TaYzp9buo+i0/gbhCZax8qrEHSW11aQK3gmvBUvA7oDVxGPgEmAPEldbwAvBLcD+YB54Geg1WjF5j/gkOqraDLUiwlzLVyJgnRtcEbRaJrnKngEEgUSe1kPQBYB/QRg5XPfRvgEQfTK4Hs2ua6LovVp66TgBqU7IXnAdmgH+B1UDXohuAyQ9UlsyNZkj0QqvXtPks36SJ7cTPemI0ORIdSu8E2uDWf/VZXNmpXmoOe5CSMcngrBtrge/XQBv4ASBRPy5RcfRKsAdIHgKfT6rNJkMkf7LOaMT9FfBcjN2E1sG/BjwJpllZ0vp28N0krweB1pDdhsyV1cQFyTqfZ+N4+kLsGSDdTzpkB4FkKbgGPAO0b7aAFRoOejV4FIgjbfpzcsPEHiT4SplcdLQRpwU5H7Sv9qRLG5b8XFA6Uci/UGiouu0iLkjb0EWCAkeC6RZKWu3p2hmEtE7GOZbvVlMmyDjiG/mhMj2dxnxIw6b+zWxqB3+Qphj5CCqNlbzaTLnR/FQ/5kzFdixoc9bUDnFBmmJiXw4lsP3NhfQA6GoddKrb/KEj/LH8ZOrx9oX4TutF7+xj1i02zdfcprHiDxImVCkFx3expnL/dZ/3JU+x8+K85BnIW229tJ/E+TC3OgPOQC8z4Bu8l2fP++4MdGDAN3gHgtztDPQyA77Be3n2vO/OQAcGfIN3IMjdzkAvM+AbvJdnz/vuDHRgwDd4B4Lc7Qz0MgO+wXt59rzvzkAHBmyDjyiOfxwfkv5fEO9LfhacF+clz0CDlUVTAEntj/Ibih8QF20PqX1g4n2BWchwXjIrzHnJkDJ2vQy3f3usXZUv4lZnwBnoRQb003O7otvv0C+axIGM0Lb+J3JBSHtfWpPhvLR4qP51XqqMtPJtXvJutzoDzkDfMPAfKDy/csPznCoAAAAASUVORK5CYII=;" vertex="1" parent="XqRsU5LYybaEt040qR8E-85">
          <mxGeometry x="82.00000000000006" width="156.63" height="24" as="geometry" />
        </mxCell>
        <mxCell id="XqRsU5LYybaEt040qR8E-12" value="Embedding" style="text;align=center;verticalAlign=middle;resizable=0;points=[];autosize=1;strokeColor=none;fillColor=none;fontColor=#FFFFFF;fontSize=12;" vertex="1" parent="XqRsU5LYybaEt040qR8E-85">
          <mxGeometry width="79" height="26" as="geometry" />
        </mxCell>
        <mxCell id="XqRsU5LYybaEt040qR8E-87" style="edgeStyle=orthogonalEdgeStyle;rounded=0;orthogonalLoop=1;jettySize=auto;html=1;entryX=0;entryY=0.5;entryDx=0;entryDy=0;strokeColor=#FFFFFF;startArrow=classic;startFill=1;endArrow=classic;endFill=1;" edge="1" parent="XqRsU5LYybaEt040qR8E-25" source="XqRsU5LYybaEt040qR8E-40" target="XqRsU5LYybaEt040qR8E-35">
          <mxGeometry relative="1" as="geometry" />
        </mxCell>
        <mxCell id="XqRsU5LYybaEt040qR8E-88" style="edgeStyle=orthogonalEdgeStyle;rounded=0;orthogonalLoop=1;jettySize=auto;html=1;entryX=-0.034;entryY=0.607;entryDx=0;entryDy=0;entryPerimeter=0;strokeColor=#FFFFFF;startArrow=classic;startFill=1;endArrow=classic;endFill=1;" edge="1" parent="XqRsU5LYybaEt040qR8E-25" source="XqRsU5LYybaEt040qR8E-6" target="XqRsU5LYybaEt040qR8E-12">
          <mxGeometry relative="1" as="geometry" />
        </mxCell>
        <mxCell id="XqRsU5LYybaEt040qR8E-89" style="edgeStyle=orthogonalEdgeStyle;rounded=0;orthogonalLoop=1;jettySize=auto;html=1;strokeColor=#FFFFFF;startArrow=classic;startFill=1;endArrow=classic;endFill=1;" edge="1" parent="XqRsU5LYybaEt040qR8E-25" source="XqRsU5LYybaEt040qR8E-7" target="XqRsU5LYybaEt040qR8E-30">
          <mxGeometry relative="1" as="geometry" />
        </mxCell>
        <mxCell id="XqRsU5LYybaEt040qR8E-90" style="edgeStyle=orthogonalEdgeStyle;rounded=0;orthogonalLoop=1;jettySize=auto;html=1;entryX=0;entryY=0.5;entryDx=0;entryDy=0;strokeColor=#FFFFFF;" edge="1" parent="XqRsU5LYybaEt040qR8E-25" source="XqRsU5LYybaEt040qR8E-53" target="XqRsU5LYybaEt040qR8E-52">
          <mxGeometry relative="1" as="geometry" />
        </mxCell>
        <mxCell id="XqRsU5LYybaEt040qR8E-91" style="edgeStyle=orthogonalEdgeStyle;rounded=0;orthogonalLoop=1;jettySize=auto;html=1;entryX=0;entryY=0.5;entryDx=0;entryDy=0;strokeColor=#FFFFFF;" edge="1" parent="XqRsU5LYybaEt040qR8E-25" source="XqRsU5LYybaEt040qR8E-52" target="XqRsU5LYybaEt040qR8E-51">
          <mxGeometry relative="1" as="geometry" />
        </mxCell>
        <mxCell id="XqRsU5LYybaEt040qR8E-92" style="edgeStyle=orthogonalEdgeStyle;rounded=0;orthogonalLoop=1;jettySize=auto;html=1;entryX=0.493;entryY=0.898;entryDx=0;entryDy=0;entryPerimeter=0;strokeColor=#FFFFFF;" edge="1" parent="XqRsU5LYybaEt040qR8E-25" source="XqRsU5LYybaEt040qR8E-51" target="XqRsU5LYybaEt040qR8E-31">
          <mxGeometry relative="1" as="geometry" />
        </mxCell>
        <mxCell id="XqRsU5LYybaEt040qR8E-103" value="2" style="ellipse;whiteSpace=wrap;html=1;aspect=fixed;" vertex="1" parent="XqRsU5LYybaEt040qR8E-25">
          <mxGeometry x="26" y="326.38" width="24" height="24" as="geometry" />
        </mxCell>
        <mxCell id="XqRsU5LYybaEt040qR8E-104" value="3" style="ellipse;whiteSpace=wrap;html=1;aspect=fixed;" vertex="1" parent="XqRsU5LYybaEt040qR8E-25">
          <mxGeometry x="237" y="328.25" width="24" height="24" as="geometry" />
        </mxCell>
        <mxCell id="XqRsU5LYybaEt040qR8E-105" value="4" style="ellipse;whiteSpace=wrap;html=1;aspect=fixed;" vertex="1" parent="XqRsU5LYybaEt040qR8E-25">
          <mxGeometry x="428" y="326.38" width="24" height="24" as="geometry" />
        </mxCell>
        <mxCell id="XqRsU5LYybaEt040qR8E-107" value="6" style="ellipse;whiteSpace=wrap;html=1;aspect=fixed;" vertex="1" parent="XqRsU5LYybaEt040qR8E-25">
          <mxGeometry x="26" y="191" width="24" height="24" as="geometry" />
        </mxCell>
        <mxCell id="XqRsU5LYybaEt040qR8E-108" value="7" style="ellipse;whiteSpace=wrap;html=1;aspect=fixed;" vertex="1" parent="XqRsU5LYybaEt040qR8E-25">
          <mxGeometry x="195" y="191" width="24" height="24" as="geometry" />
        </mxCell>
        <mxCell id="XqRsU5LYybaEt040qR8E-109" value="8" style="ellipse;whiteSpace=wrap;html=1;aspect=fixed;" vertex="1" parent="XqRsU5LYybaEt040qR8E-25">
          <mxGeometry x="554" y="191" width="24" height="24" as="geometry" />
        </mxCell>
        <mxCell id="XqRsU5LYybaEt040qR8E-110" value="9" style="ellipse;whiteSpace=wrap;html=1;aspect=fixed;" vertex="1" parent="XqRsU5LYybaEt040qR8E-25">
          <mxGeometry x="24" y="43" width="24" height="24" as="geometry" />
        </mxCell>
        <mxCell id="XqRsU5LYybaEt040qR8E-111" value="10" style="ellipse;whiteSpace=wrap;html=1;aspect=fixed;" vertex="1" parent="XqRsU5LYybaEt040qR8E-25">
          <mxGeometry x="239" y="43" width="24" height="24" as="geometry" />
        </mxCell>
        <mxCell id="XqRsU5LYybaEt040qR8E-112" value="11" style="ellipse;whiteSpace=wrap;html=1;aspect=fixed;" vertex="1" parent="XqRsU5LYybaEt040qR8E-25">
          <mxGeometry x="436" y="43" width="24" height="24" as="geometry" />
        </mxCell>
        <mxCell id="XqRsU5LYybaEt040qR8E-113" value="12" style="ellipse;whiteSpace=wrap;html=1;aspect=fixed;" vertex="1" parent="XqRsU5LYybaEt040qR8E-25">
          <mxGeometry x="616" y="43" width="24" height="24" as="geometry" />
        </mxCell>
        <mxCell id="XqRsU5LYybaEt040qR8E-58" style="edgeStyle=orthogonalEdgeStyle;rounded=0;orthogonalLoop=1;jettySize=auto;html=1;entryX=0.006;entryY=0.451;entryDx=0;entryDy=0;entryPerimeter=0;strokeColor=#FFFFFF;" edge="1" parent="1" source="XqRsU5LYybaEt040qR8E-5" target="XqRsU5LYybaEt040qR8E-13">
          <mxGeometry relative="1" as="geometry" />
        </mxCell>
        <mxCell id="XqRsU5LYybaEt040qR8E-65" value="" style="rounded=0;whiteSpace=wrap;html=1;fillColor=none;dashed=1;dashPattern=8 8;strokeColor=#FFFFFF;fontColor=#FFFFFF;fontSize=16;" vertex="1" parent="1">
          <mxGeometry x="541" y="654" width="264" height="92" as="geometry" />
        </mxCell>
        <mxCell id="XqRsU5LYybaEt040qR8E-67" value="MCP Server" style="text;align=center;verticalAlign=middle;resizable=0;points=[];autosize=1;strokeColor=none;fillColor=none;fontColor=#FFFFFF;fontSize=16;" vertex="1" parent="1">
          <mxGeometry x="552" y="682" width="105" height="31" as="geometry" />
        </mxCell>
        <mxCell id="XqRsU5LYybaEt040qR8E-72" style="edgeStyle=orthogonalEdgeStyle;rounded=0;orthogonalLoop=1;jettySize=auto;html=1;entryX=0.75;entryY=0;entryDx=0;entryDy=0;strokeColor=#FFFFFF;startArrow=classic;startFill=1;" edge="1" parent="1" source="XqRsU5LYybaEt040qR8E-23" target="XqRsU5LYybaEt040qR8E-65">
          <mxGeometry relative="1" as="geometry">
            <mxPoint x="815.4990000000003" y="953.3389999999999" as="targetPoint" />
          </mxGeometry>
        </mxCell>
        <mxCell id="XqRsU5LYybaEt040qR8E-97" style="edgeStyle=orthogonalEdgeStyle;rounded=0;orthogonalLoop=1;jettySize=auto;html=1;exitX=0.5;exitY=1;exitDx=0;exitDy=0;" edge="1" parent="1" source="XqRsU5LYybaEt040qR8E-65" target="XqRsU5LYybaEt040qR8E-65">
          <mxGeometry relative="1" as="geometry" />
        </mxCell>
        <mxCell id="XqRsU5LYybaEt040qR8E-98" value="Tools" style="rounded=0;whiteSpace=wrap;html=1;fillColor=none;dashed=1;dashPattern=8 8;strokeColor=#FFFFFF;fontColor=#FFFFFF;fontSize=16;" vertex="1" parent="1">
          <mxGeometry x="665" y="670.5" width="129" height="54" as="geometry" />
        </mxCell>
        <mxCell id="XqRsU5LYybaEt040qR8E-102" value="1" style="ellipse;whiteSpace=wrap;html=1;aspect=fixed;" vertex="1" parent="1">
          <mxGeometry x="699" y="612" width="24" height="24" as="geometry" />
        </mxCell>
        <mxCell id="XqRsU5LYybaEt040qR8E-106" value="5" style="ellipse;whiteSpace=wrap;html=1;aspect=fixed;" vertex="1" parent="1">
          <mxGeometry x="1500" y="651" width="24" height="24" as="geometry" />
        </mxCell>
      </root>
    </mxGraphModel>
  </diagram>
</mxfile>
